<svg width="93" height="93" viewBox="0 0 93 93" fill="none" xmlns="http://www.w3.org/2000/svg">
<path d="M46.5002 92.7574C55.6484 92.7574 64.5912 90.0446 72.1977 84.9619C79.8041 79.8793 85.7326 72.6551 89.2335 64.203C92.7344 55.7508 93.6504 46.4503 91.8656 37.4776C90.0809 28.5048 85.6756 20.2629 79.2069 13.7939C72.7381 7.32489 64.4964 2.91945 55.524 1.13466C46.5515 -0.650127 37.2514 0.265891 28.7995 3.76688C20.3477 7.26787 13.1238 13.1966 8.04132 20.8033C2.95885 28.41 0.246094 37.3531 0.246094 46.5016C0.245663 52.5762 1.44177 58.5913 3.7661 64.2035C6.09044 69.8157 9.49748 74.915 13.7927 79.2104C18.0878 83.5057 23.187 86.9129 28.799 89.2373C34.411 91.5617 40.4259 92.7579 46.5002 92.7574Z" fill="white"/>
<path d="M46.4999 1.15606e-07C37.3029 -0.000648266 28.3123 2.72607 20.665 7.83535C13.0177 12.9446 7.05712 20.207 3.53715 28.704C0.0171681 37.201 -0.904155 46.551 0.889688 55.5716C2.68353 64.5923 7.11197 72.8784 13.615 79.3821C20.118 85.8858 28.4035 90.315 37.4237 92.1095C46.4439 93.9041 55.7937 92.9834 64.2906 89.4639C72.7876 85.9444 80.0501 79.9841 85.1597 72.3369C90.2693 64.6897 92.9966 55.6989 92.9966 46.5016C92.9966 34.1692 88.0979 22.3418 79.3782 13.6212C70.6585 4.90052 58.8319 0.000869515 46.4999 1.15606e-07ZM79.0318 79.0348C71.5053 86.5631 61.6014 91.2487 51.0075 92.2932C40.4137 93.3376 29.7854 90.6762 20.9338 84.7626C12.0821 78.8489 5.55477 70.0489 2.46392 59.8619C-0.626918 49.6749 -0.0899998 38.7313 3.98319 28.8959C8.05638 19.0604 15.4138 10.9416 24.8018 5.92291C34.1899 0.904204 45.0276 -0.703895 55.4683 1.37262C65.909 3.44914 75.3068 9.0818 82.0602 17.3108C88.8136 25.5398 92.5048 35.856 92.5049 46.5016C92.513 52.5446 91.3269 58.5296 89.0147 64.1127C86.7026 69.6958 83.31 74.767 79.0318 79.0348Z" fill="#003342"/>
<path d="M46.5004 89.3939C54.985 89.3939 63.279 86.8778 70.3336 82.1637C77.3881 77.4496 82.8864 70.7494 86.133 62.9102C89.3796 55.0711 90.2287 46.4453 88.573 38.1235C86.9173 29.8018 82.831 22.1579 76.8311 16.1587C70.8311 10.1594 63.1869 6.07422 54.8652 4.4197C46.5435 2.76518 37.9181 3.61566 30.0797 6.86357C22.2414 10.1115 15.5422 15.611 10.8293 22.6665C6.11651 29.7221 3.60173 38.0168 3.60303 46.5016C3.60477 57.878 8.12506 68.7878 16.1697 76.8315C24.2143 84.8752 35.1244 89.3939 46.5004 89.3939Z" fill="#003342"/>
<path d="M24.2875 38.3945H22.5337C21.6879 38.3945 21.4454 38.2142 21.3142 37.7127L20.9405 36.5423H17.4329L17.0592 37.7127C16.8986 38.2142 16.6855 38.3945 15.8726 38.3945H14.1811C13.6795 38.3945 13.5812 38.1651 13.7418 37.7389L17.4592 27.4354C17.6198 26.9634 17.8329 26.8683 18.3049 26.8683H20.1538C20.6258 26.8683 20.8389 26.9797 20.9995 27.4026L24.753 37.7323C24.9136 38.1716 24.753 38.388 24.2809 38.388M19.2523 31.1038H19.0982C19.0982 31.1038 19.0982 30.9857 18.7901 32.0872L18.1804 33.9919H20.2095L19.6096 32.0905C19.2818 30.9857 19.2523 31.107 19.2523 31.107" fill="white"/>
<path d="M71.607 37.2177V37.6472C71.607 38.2602 71.407 38.4602 70.7907 38.4602H70.3941C69.768 38.4602 69.5713 38.2602 69.5713 37.6472V37.2177C69.5713 36.6014 69.768 36.3916 70.3941 36.3916H70.7907C71.407 36.3916 71.607 36.6014 71.607 37.2177Z" fill="#D9732A"/>
<path d="M79.6384 21.6888V22.115C79.6384 22.7313 79.4384 22.9312 78.8221 22.9312H78.432C77.8059 22.9312 77.606 22.7313 77.606 22.115V21.6888C77.606 21.0725 77.8059 20.8627 78.432 20.8627H78.8287C79.445 20.8627 79.6449 21.0725 79.6449 21.6888" fill="#D9732A"/>
<path d="M76.2586 34.8181V35.559C76.2586 36.6277 75.9144 36.9719 74.8458 36.9719H74.1705C73.0854 36.9719 72.7412 36.6441 72.7412 35.559V34.8181C72.7412 33.7494 73.0854 33.3855 74.1705 33.3855H74.8589C75.9275 33.3855 76.2717 33.7494 76.2717 34.8181" fill="#D9732A"/>
<path d="M77.1013 24.9801V25.7209C77.1013 26.7897 76.7571 27.1339 75.6885 27.1339H75.0033C73.915 27.1339 73.5708 26.806 73.5708 25.7209V24.9801C73.5708 23.9114 73.915 23.5475 75.0033 23.5475H75.6885C76.7571 23.5475 77.1013 23.9114 77.1013 24.9801Z" fill="#D9732A"/>
<path d="M73.9971 29.6746V30.658C73.9971 32.0972 73.5348 32.5594 72.099 32.5594H71.1713C69.7093 32.5594 69.2471 32.0972 69.2471 30.658V29.6746C69.2471 28.2354 69.7093 27.7502 71.1713 27.7502H72.099C73.5348 27.7502 73.9971 28.2354 73.9971 29.6746Z" fill="#D9732A"/>
<path d="M30.1326 26.5306C32.6732 26.5306 34.2532 27.5666 34.9449 29.4122C35.1121 29.8908 34.9941 30.14 34.5023 30.3039L32.7387 30.93C32.2273 31.0775 32.0274 30.9956 31.8471 30.4842C31.552 29.7433 31.057 29.4122 30.1326 29.4122C28.8214 29.4122 28.3198 29.9728 28.3198 31.1267V34.1263C28.3198 35.2802 28.8312 35.8408 30.1326 35.8408C31.057 35.8408 31.5848 35.4769 31.8471 34.7688C32.047 34.2574 32.2437 34.1427 32.7387 34.323L34.5023 34.9491C34.9941 35.1163 35.1121 35.3622 34.9449 35.8408C34.2532 37.6864 32.6732 38.7256 30.1326 38.7256C26.8873 38.7256 25.0581 36.962 25.0581 34.1099V31.1595C25.0581 28.3107 26.8873 26.547 30.1326 26.547V26.5306Z" fill="white"/>
<path d="M41.2747 26.5306C43.812 26.5306 45.3953 27.5666 46.087 29.4122C46.2509 29.8908 46.1361 30.14 45.6412 30.3039L43.8775 30.93C43.3661 31.0775 43.1695 30.9956 42.9892 30.4842C42.7007 29.7302 42.1959 29.4024 41.2747 29.4024C39.9635 29.4024 39.4619 29.9629 39.4619 31.1169V34.1165C39.4619 35.2704 39.9733 35.831 41.2747 35.831C42.1959 35.831 42.7236 35.4671 42.9892 34.759C43.1859 34.2476 43.3825 34.1328 43.8775 34.3132L45.6412 34.9393C46.1361 35.1065 46.2509 35.3523 46.087 35.831C45.3953 37.6766 43.812 38.7158 41.2747 38.7158C38.0294 38.7158 36.2002 36.9521 36.2002 34.1001V31.1497C36.2002 28.3009 38.0294 26.5372 41.2747 26.5372V26.5306Z" fill="white"/>
<path d="M67.2341 38.3945H65.4803C64.6346 38.3945 64.392 38.2142 64.2609 37.7127L63.8872 36.5423H60.3796L60.0059 37.7127C59.8453 38.2142 59.6322 38.3945 58.8192 38.3945H57.1244C56.6229 38.3945 56.5245 38.1651 56.6852 37.7389L60.4025 27.4354C60.5632 26.9634 60.7762 26.8683 61.2483 26.8683H63.0971C63.5692 26.8683 63.7823 26.9797 63.9429 27.4026L67.6963 37.7323C67.857 38.1716 67.7127 38.388 67.2243 38.388M62.1891 31.0972H62.0416C62.0416 31.0972 62.058 30.9792 61.7334 32.0807L61.127 33.9919H63.1561L62.5563 32.0905C62.2284 30.9857 62.1989 31.107 62.1989 31.107" fill="white"/>
<path d="M53.5579 30.8743C53.5688 30.7095 53.5441 30.5443 53.4854 30.3899C53.4268 30.2355 53.3355 30.0955 53.218 29.9795C53.1004 29.8635 52.9593 29.7742 52.8041 29.7176C52.649 29.661 52.4834 29.6385 52.3188 29.6515H50.6798V32.0807H52.3188C52.4825 32.0957 52.6475 32.0751 52.8024 32.0203C52.9573 31.9654 53.0985 31.8776 53.2163 31.763C53.3341 31.6483 53.4256 31.5095 53.4846 31.3561C53.5435 31.2027 53.5686 31.0383 53.5579 30.8743ZM56.9442 30.8907C56.9442 33.5133 55.2757 34.9721 52.7155 34.9721H50.683V37.7979C50.683 38.3126 50.5159 38.4929 49.9881 38.4929H48.1196C47.5918 38.4929 47.4082 38.3126 47.4082 37.7979V27.4551C47.4082 26.9437 47.5918 26.7601 48.1196 26.7601H52.6794C55.2593 26.7601 56.9409 28.2648 56.9409 30.8907H56.9442Z" fill="white"/>
<path d="M14.2041 40.5484C14.2041 40.5484 14.1647 40.7254 14.1287 40.827L13.9713 41.3057H14.4401L14.2828 40.827C14.25 40.7254 14.2106 40.5484 14.2106 40.5484H14.2041ZM14.5319 41.5712H13.8927L13.7419 42.0301H13.4141L14.0435 40.2402H14.3713L15.0007 42.0301H14.6729L14.5221 41.5712H14.5319Z" fill="#D9732A"/>
<path d="M16.0434 41.3647C16.0434 41.0697 15.9024 40.991 15.7156 40.991C15.5287 40.991 15.4107 41.1352 15.4107 41.3516C15.4107 41.568 15.5287 41.7417 15.7385 41.7417C15.8926 41.7417 16.0335 41.6532 16.0335 41.3647H16.0434ZM15.673 42.2957C15.8696 42.2957 16.0368 42.2105 16.0368 41.9679V41.8925C16.0353 41.8696 16.0353 41.8466 16.0368 41.8237C15.9983 41.882 15.9448 41.9289 15.8819 41.9594C15.8191 41.99 15.7492 42.0031 15.6795 41.9974C15.5973 41.9961 15.5163 41.9776 15.4416 41.9431C15.3669 41.9087 15.3003 41.859 15.246 41.7972C15.1917 41.7355 15.1509 41.6631 15.1262 41.5846C15.1015 41.5062 15.0934 41.4235 15.1026 41.3418C15.0908 41.2601 15.0967 41.1769 15.12 41.0978C15.1433 41.0187 15.1834 40.9455 15.2375 40.8832C15.2917 40.821 15.3586 40.7712 15.4337 40.7372C15.5089 40.7032 15.5905 40.6857 15.673 40.6861C15.7449 40.6801 15.8173 40.6919 15.8836 40.7204C15.9499 40.749 16.0082 40.7935 16.0532 40.85C16.052 40.8391 16.052 40.8281 16.0532 40.8172V40.7189H16.3548V41.9253C16.3559 42.0116 16.3385 42.0972 16.3038 42.1764C16.2692 42.2555 16.218 42.3263 16.1537 42.384C16.0895 42.4417 16.0137 42.4851 15.9313 42.5111C15.849 42.5372 15.762 42.5453 15.6762 42.535C15.5177 42.5339 15.3617 42.4958 15.2206 42.4236L15.3156 42.1777C15.426 42.2316 15.5469 42.2607 15.6697 42.2629L15.673 42.2957Z" fill="#D9732A"/>
<path d="M17.5219 41.2334C17.5242 41.1988 17.5192 41.1641 17.5073 41.1315C17.4954 41.0989 17.4768 41.0691 17.4527 41.0441C17.4287 41.0191 17.3996 40.9994 17.3675 40.9863C17.3354 40.9732 17.3009 40.9669 17.2662 40.9679C17.1909 40.9657 17.1176 40.9917 17.0606 41.0409C17.0036 41.09 16.967 41.1587 16.958 41.2334H17.5219ZM17.2727 40.7187C17.3519 40.7165 17.4307 40.7311 17.5038 40.7617C17.5769 40.7923 17.6427 40.8382 17.6966 40.8962C17.7506 40.9542 17.7916 41.0231 17.8169 41.0982C17.8421 41.1733 17.8511 41.2529 17.8431 41.3318C17.8431 41.3678 17.8431 41.4531 17.8431 41.4531H16.9482C16.9574 41.5473 17.0029 41.6342 17.0751 41.6954C17.1473 41.7566 17.2406 41.7873 17.335 41.7809C17.4703 41.7745 17.6001 41.7252 17.7054 41.6399L17.83 41.8694C17.6842 41.9893 17.5009 42.0543 17.3121 42.053C17.223 42.0579 17.1338 42.0446 17.0501 42.0138C16.9663 41.9831 16.8897 41.9355 16.825 41.8742C16.7602 41.8128 16.7087 41.7388 16.6735 41.6568C16.6383 41.5749 16.6202 41.4865 16.6204 41.3973C16.6149 41.3089 16.6279 41.2202 16.6586 41.1371C16.6893 41.054 16.7371 40.9782 16.7988 40.9146C16.8605 40.851 16.9349 40.8011 17.0171 40.7679C17.0992 40.7347 17.1874 40.7191 17.276 40.722L17.2727 40.7187Z" fill="#D9732A"/>
<path d="M18.6623 41.7974C18.8295 41.7974 18.9901 41.6761 18.9901 41.3909C18.9901 41.191 18.8819 40.9943 18.6623 40.9943C18.4426 40.9943 18.3345 41.1385 18.3345 41.3942C18.3345 41.6499 18.4689 41.7974 18.6623 41.7974ZM18.6033 40.7189C18.674 40.7111 18.7455 40.7222 18.8106 40.751C18.8756 40.7797 18.9319 40.8252 18.9737 40.8828V40.2468H19.3015V42.0367H18.9999V41.9318C18.9976 41.9035 18.9976 41.875 18.9999 41.8466C18.959 41.9163 18.8998 41.9736 18.8288 42.0123C18.7577 42.051 18.6775 42.0697 18.5967 42.0662C18.5152 42.0635 18.4351 42.0441 18.3615 42.009C18.2879 41.974 18.2222 41.9242 18.1687 41.8627C18.1152 41.8011 18.0749 41.7292 18.0504 41.6515C18.0259 41.5737 18.0177 41.4917 18.0263 41.4106C18.0162 41.3272 18.0237 41.2426 18.0482 41.1622C18.0728 41.0818 18.1138 41.0075 18.1688 40.9439C18.2237 40.8803 18.2913 40.8289 18.3673 40.793C18.4432 40.7571 18.5258 40.7374 18.6098 40.7353L18.6033 40.7189Z" fill="#D9732A"/>
<path d="M20.8391 41.7679C20.8836 41.7738 20.9288 41.7694 20.9713 41.7551C21.0137 41.7407 21.0523 41.7167 21.084 41.685C21.1158 41.6533 21.1397 41.6147 21.1541 41.5722C21.1685 41.5297 21.1729 41.4845 21.1669 41.4401V41.2466H20.8621C20.6654 41.2466 20.5343 41.3352 20.5343 41.5089C20.5367 41.5464 20.5467 41.5831 20.5637 41.6166C20.5807 41.6502 20.6042 41.68 20.633 41.7042C20.6618 41.7284 20.6952 41.7465 20.7312 41.7574C20.7672 41.7684 20.805 41.7719 20.8424 41.7679H20.8391ZM20.5113 41.0827C20.4388 41.0471 20.3785 40.9906 20.3382 40.9205C20.2979 40.8505 20.2794 40.77 20.2851 40.6893C20.2851 40.3615 20.5375 40.2173 20.849 40.2173C20.9286 40.2192 21.0078 40.2302 21.085 40.2501L21.0063 40.5058C20.967 40.5022 20.9276 40.5022 20.8883 40.5058C20.8541 40.5011 20.8193 40.5038 20.7862 40.5137C20.7531 40.5235 20.7225 40.5404 20.6964 40.563C20.6703 40.5857 20.6494 40.6136 20.635 40.645C20.6206 40.6764 20.6131 40.7105 20.6129 40.7451C20.6129 40.8467 20.6687 40.9811 20.885 40.9811H21.1702V40.7484H21.498V40.9811H21.7209V41.263H21.4915V41.4761C21.4955 41.5611 21.4808 41.646 21.4486 41.7247C21.4164 41.8035 21.3673 41.8742 21.3048 41.932C21.2424 41.9898 21.168 42.0332 21.087 42.0592C21.006 42.0852 20.9203 42.0932 20.8358 42.0826C20.7568 42.0946 20.6761 42.0899 20.599 42.0687C20.5219 42.0476 20.4502 42.0105 20.3883 41.9598C20.3265 41.9091 20.276 41.8459 20.2402 41.7745C20.2043 41.703 20.1839 41.6248 20.1802 41.545C20.1789 41.4483 20.2074 41.3535 20.262 41.2737C20.3166 41.1939 20.3945 41.1329 20.4851 41.0991L20.5113 41.0827Z" fill="#D9732A"/>
<path d="M23.4551 40.2205C23.6973 40.2141 23.9325 40.3023 24.1107 40.4664L23.9534 40.709C23.8172 40.5914 23.6447 40.5243 23.4649 40.5189C23.3841 40.5165 23.3037 40.5309 23.2287 40.5612C23.1537 40.5916 23.0859 40.6372 23.0295 40.6951C22.9731 40.7531 22.9293 40.8221 22.901 40.8979C22.8727 40.9736 22.8605 41.0544 22.865 41.1352C22.8601 41.2174 22.8721 41.2997 22.9002 41.3771C22.9283 41.4545 22.9719 41.5253 23.0284 41.5852C23.0849 41.6451 23.1531 41.6928 23.2287 41.7253C23.3044 41.7579 23.3859 41.7746 23.4682 41.7744C23.6632 41.7671 23.8482 41.6863 23.9862 41.5482L24.1599 41.7843C24.0675 41.8768 23.9576 41.95 23.8366 41.9995C23.7155 42.049 23.5859 42.0739 23.4551 42.0727C23.219 42.0587 22.9972 41.955 22.835 41.7829C22.6728 41.6107 22.5825 41.3832 22.5825 41.1466C22.5825 40.9101 22.6728 40.6826 22.835 40.5104C22.9972 40.3383 23.219 40.2346 23.4551 40.2205Z" fill="#D9732A"/>
<path d="M25.0284 41.7942C25.109 41.7981 25.1889 41.7778 25.2578 41.7358C25.3268 41.6938 25.3815 41.6321 25.415 41.5586C25.4484 41.4852 25.4591 41.4034 25.4455 41.3238C25.432 41.2442 25.3949 41.1706 25.3391 41.1123C25.2832 41.0541 25.2111 41.0139 25.1322 40.9971C25.0533 40.9802 24.9711 40.9875 24.8964 41.0178C24.8216 41.0482 24.7576 41.1003 24.7128 41.1674C24.668 41.2345 24.6443 41.3135 24.6448 41.3942C24.6422 41.4461 24.6501 41.4979 24.6682 41.5466C24.6863 41.5952 24.7142 41.6396 24.7501 41.6771C24.7861 41.7146 24.8293 41.7443 24.8772 41.7644C24.925 41.7846 24.9765 41.7947 25.0284 41.7942ZM25.0284 40.7189C25.1604 40.7253 25.2876 40.7703 25.3942 40.8483C25.5009 40.9263 25.5823 41.0339 25.6284 41.1577C25.6745 41.2815 25.6833 41.4162 25.6537 41.5449C25.624 41.6737 25.5573 41.7909 25.4617 41.8821C25.366 41.9733 25.2458 42.0345 25.1158 42.058C24.9857 42.0815 24.8517 42.0663 24.7302 42.0144C24.6087 41.9624 24.5051 41.876 24.4322 41.7658C24.3594 41.6555 24.3205 41.5264 24.3203 41.3942C24.3207 41.3028 24.3395 41.2125 24.3756 41.1285C24.4117 41.0446 24.4644 40.9688 24.5306 40.9058C24.5967 40.8427 24.6749 40.7937 24.7604 40.7615C24.8459 40.7294 24.9371 40.7149 25.0284 40.7189Z" fill="#D9732A"/>
<path d="M25.9824 40.7517H26.3102V40.8992C26.3124 40.9287 26.3124 40.9583 26.3102 40.9877C26.3488 40.9094 26.4079 40.843 26.4812 40.7957C26.5545 40.7483 26.6393 40.7218 26.7266 40.7189C26.8106 40.7115 26.8946 40.7341 26.9636 40.7827C27.0326 40.8313 27.0822 40.9028 27.1035 40.9844C27.1458 40.9052 27.2085 40.8388 27.2852 40.7921C27.3619 40.7453 27.4497 40.7201 27.5395 40.7189C27.8083 40.7189 27.9624 40.873 27.9624 41.2106V42.0367H27.6346V41.2696C27.6346 41.1221 27.6084 41.0139 27.4576 41.0139C27.38 41.0181 27.3064 41.0498 27.2499 41.1032C27.1935 41.1567 27.1579 41.2284 27.1494 41.3057C27.1423 41.3612 27.1423 41.4174 27.1494 41.4729V42.0367H26.8216V41.2696C26.8216 41.132 26.7987 41.0139 26.6479 41.0139C26.5663 41.0135 26.4876 41.0435 26.4269 41.0981C26.3663 41.1526 26.3282 41.2278 26.3201 41.309C26.313 41.3634 26.313 41.4185 26.3201 41.4729V42.0367H25.9824V40.7517Z" fill="#D9732A"/>
<path d="M28.2936 40.7517H28.605V40.8992C28.605 40.9484 28.605 40.9877 28.605 40.9877C28.6438 40.9089 28.7034 40.8423 28.7774 40.7949C28.8513 40.7475 28.9368 40.7212 29.0246 40.7189C29.1086 40.7122 29.1922 40.7351 29.2611 40.7836C29.33 40.8321 29.3797 40.9031 29.4016 40.9845C29.4444 40.905 29.5077 40.8384 29.585 40.7917C29.6622 40.745 29.7506 40.7199 29.8409 40.7189C30.1097 40.7189 30.2637 40.873 30.2637 41.2107V42.0368H29.9359V41.2697C29.9359 41.1221 29.9064 41.014 29.7589 41.014C29.6779 41.0135 29.5995 41.043 29.539 41.0969C29.4784 41.1508 29.44 41.2252 29.4311 41.3057C29.424 41.3612 29.424 41.4174 29.4311 41.4729V42.0368H29.1033V41.2697C29.1033 41.132 29.0803 41.014 28.9295 41.014C28.848 41.0136 28.7692 41.0436 28.7086 41.0981C28.648 41.1527 28.6099 41.2279 28.6017 41.309C28.5946 41.3634 28.5946 41.4185 28.6017 41.4729V42.0368H28.2739V40.7517H28.2936Z" fill="#D9732A"/>
<path d="M30.5718 40.7517H30.8996V41.5123C30.8996 41.6696 30.9422 41.7745 31.0996 41.7745C31.1522 41.7713 31.2037 41.7574 31.2507 41.7336C31.2978 41.7098 31.3395 41.6766 31.3733 41.636C31.4071 41.5955 31.4322 41.5485 31.4471 41.4979C31.4621 41.4473 31.4665 41.3942 31.4601 41.3418V40.7517H31.788V42.0368H31.4798V41.8893C31.4798 41.8401 31.4798 41.8007 31.4798 41.8007C31.4371 41.8817 31.3728 41.9493 31.2942 41.9961C31.2156 42.043 31.1255 42.0672 31.034 42.0663C30.7586 42.0663 30.5849 41.9286 30.5849 41.5778V40.7517H30.5718Z" fill="#D9732A"/>
<path d="M32.1321 40.7517H32.4403V40.8993C32.4403 40.9484 32.4403 40.9878 32.4403 40.9878C32.4839 40.9044 32.55 40.8351 32.6312 40.7875C32.7123 40.74 32.8052 40.7162 32.8992 40.719C33.1844 40.719 33.345 40.8698 33.345 41.2107V42.0368H33.0172V41.2763C33.0172 41.1189 32.9779 41.014 32.814 41.014C32.7352 41.0133 32.6585 41.0387 32.5957 41.0861C32.5328 41.1335 32.4874 41.2004 32.4665 41.2763C32.4504 41.3316 32.4427 41.3891 32.4435 41.4467V42.0368H32.1157V40.7517H32.1321Z" fill="#D9732A"/>
<path d="M33.6797 40.7517H34.0075V42.0367H33.6797V40.7517ZM33.6797 40.2468H34.0075V40.5484H33.6797V40.2632V40.2468Z" fill="#D9732A"/>
<path d="M34.4103 41.0237H34.2432V40.7713H34.4169V40.4009H34.7447V40.7713H35.0397V41.0237H34.7447V41.5319C34.7426 41.5654 34.7478 41.599 34.7601 41.6303C34.7724 41.6616 34.7914 41.6899 34.8158 41.713C34.8402 41.7362 34.8694 41.7537 34.9013 41.7643C34.9332 41.7749 34.967 41.7784 35.0004 41.7745C35.02 41.7769 35.0398 41.7769 35.0594 41.7745V42.0564C35.0267 42.0588 34.9938 42.0588 34.9611 42.0564C34.8928 42.0661 34.8233 42.0606 34.7574 42.0404C34.6916 42.0202 34.6309 41.9857 34.5799 41.9393C34.5289 41.893 34.4887 41.836 34.4622 41.7724C34.4358 41.7087 34.4236 41.6401 34.4267 41.5712V41.0303L34.4103 41.0237Z" fill="#D9732A"/>
<path d="M35.2367 42.2433C35.2792 42.2735 35.329 42.2916 35.381 42.2958C35.4303 42.294 35.4779 42.2774 35.5177 42.2481C35.5574 42.2189 35.5875 42.1784 35.6039 42.1318L35.6498 42.0171L35.1089 40.7517H35.4695L35.7383 41.4926C35.7581 41.5495 35.7745 41.6075 35.7875 41.6663C35.7987 41.6088 35.8129 41.5519 35.8301 41.4959L36.0825 40.7517H36.4332L35.8596 42.2302C35.8269 42.3272 35.7641 42.4113 35.6804 42.4702C35.5967 42.5291 35.4964 42.5599 35.3941 42.558C35.299 42.5568 35.2066 42.5271 35.1286 42.4728L35.2335 42.2335L35.2367 42.2433Z" fill="#D9732A"/>
<path d="M38.0786 40.2205C38.3208 40.2141 38.556 40.3023 38.7343 40.4664L38.5769 40.709C38.4408 40.5914 38.2683 40.5243 38.0885 40.5189C38.0076 40.5165 37.9272 40.5309 37.8522 40.5612C37.7773 40.5916 37.7094 40.6372 37.653 40.6951C37.5966 40.7531 37.5529 40.8221 37.5246 40.8979C37.4963 40.9736 37.484 41.0544 37.4886 41.1352C37.4837 41.2174 37.4956 41.2997 37.5237 41.3771C37.5518 41.4545 37.5955 41.5253 37.652 41.5852C37.7085 41.6451 37.7766 41.6928 37.8523 41.7253C37.9279 41.7579 38.0094 41.7746 38.0918 41.7744C38.2867 41.7671 38.4718 41.6863 38.6097 41.5482L38.7834 41.7843C38.691 41.8768 38.5811 41.95 38.4601 41.9995C38.3391 42.049 38.2094 42.0739 38.0786 42.0727C37.8426 42.0587 37.6208 41.955 37.4586 41.7829C37.2964 41.6107 37.2061 41.3832 37.2061 41.1466C37.2061 40.9101 37.2964 40.6826 37.4586 40.5104C37.6208 40.3383 37.8426 40.2346 38.0786 40.2205Z" fill="#D9732A"/>
<path d="M39.4455 41.817C39.5261 41.808 39.6005 41.7696 39.6544 41.7091C39.7082 41.6485 39.7378 41.5702 39.7373 41.4891V41.4596H39.6816C39.5177 41.4596 39.2521 41.4826 39.2521 41.6596C39.2524 41.6838 39.2578 41.7076 39.2679 41.7296C39.2781 41.7515 39.2928 41.771 39.3111 41.7868C39.3294 41.8027 39.3508 41.8144 39.374 41.8213C39.3972 41.8282 39.4216 41.83 39.4455 41.8268V41.817ZM39.6914 41.2302H39.7504V41.2039C39.7504 41.0367 39.6455 40.9777 39.5045 40.9777C39.3772 40.9851 39.2545 41.0283 39.1505 41.1023L39.0292 40.8728C39.1766 40.7678 39.3531 40.7116 39.534 40.7122C39.6046 40.7037 39.6761 40.711 39.7434 40.7335C39.8108 40.7561 39.8723 40.7934 39.9234 40.8426C39.9746 40.8919 40.0141 40.952 40.0392 41.0184C40.0643 41.0849 40.0742 41.1561 40.0684 41.2269V42.03H39.7504V41.9251C39.7481 41.8946 39.7481 41.8639 39.7504 41.8333C39.7143 41.9048 39.6582 41.9642 39.5889 42.0044C39.5197 42.0445 39.4403 42.0637 39.3603 42.0595C39.3049 42.0641 39.2492 42.0571 39.1967 42.0391C39.1442 42.021 39.0959 41.9924 39.055 41.9548C39.014 41.9172 38.9813 41.8716 38.9588 41.8208C38.9363 41.77 38.9246 41.7151 38.9243 41.6596C38.9243 41.2498 39.475 41.2236 39.6848 41.2236L39.6914 41.2302Z" fill="#D9732A"/>
<path d="M40.3863 40.7517H40.6912V40.9714C40.6912 41.0206 40.6912 41.0632 40.6912 41.0632C40.716 40.9722 40.7691 40.8915 40.8427 40.8326C40.9163 40.7737 41.0067 40.7396 41.1009 40.7354H41.1599V41.0632C41.1349 41.0609 41.1096 41.0609 41.0845 41.0632C41.0041 41.0629 40.9259 41.0895 40.8623 41.1388C40.7988 41.1881 40.7535 41.2573 40.7338 41.3353C40.7134 41.4033 40.7035 41.474 40.7043 41.5451V42.0532H40.3765V40.7681L40.3863 40.7517Z" fill="#D9732A"/>
<path d="M42.1864 41.2334C42.1892 41.1987 42.1846 41.1637 42.1729 41.1309C42.1612 41.098 42.1426 41.0681 42.1184 41.043C42.0942 41.0179 42.065 40.9982 42.0326 40.9852C42.0003 40.9723 41.9655 40.9664 41.9307 40.9679C41.8554 40.9657 41.7821 40.9917 41.7251 41.0409C41.6681 41.09 41.6315 41.1587 41.6225 41.2334H42.1864ZM41.9405 40.7187C42.0197 40.7165 42.0985 40.7311 42.1716 40.7617C42.2447 40.7923 42.3104 40.8382 42.3644 40.8962C42.4184 40.9542 42.4594 41.0231 42.4847 41.0982C42.5099 41.1733 42.5189 41.2529 42.5109 41.3318C42.5109 41.3678 42.5109 41.4531 42.5109 41.4531H41.6225C41.6325 41.547 41.6782 41.6334 41.7503 41.6945C41.8223 41.7555 41.9151 41.7865 42.0094 41.7809C42.1447 41.7745 42.2745 41.7252 42.3798 41.6399L42.5043 41.8694C42.3585 41.9893 42.1752 42.0543 41.9864 42.053C41.8973 42.0579 41.8082 42.0446 41.7244 42.0138C41.6407 41.9831 41.5641 41.9355 41.4993 41.8742C41.4346 41.8128 41.383 41.7388 41.3478 41.6568C41.3127 41.5749 41.2946 41.4865 41.2947 41.3973C41.2921 41.3096 41.3071 41.2222 41.3389 41.1404C41.3706 41.0585 41.4185 40.9839 41.4797 40.9209C41.5408 40.858 41.614 40.8079 41.6948 40.7737C41.7757 40.7396 41.8626 40.722 41.9504 40.722L41.9405 40.7187Z" fill="#D9732A"/>
<path d="M44.0677 41.1353C44.1087 41.1383 44.1498 41.1324 44.1882 41.1179C44.2267 41.1034 44.2615 41.0807 44.2902 41.0513C44.3189 41.022 44.3409 40.9867 44.3545 40.948C44.3682 40.9092 44.3733 40.868 44.3693 40.8271C44.3727 40.7872 44.3674 40.7471 44.3539 40.7094C44.3404 40.6717 44.3188 40.6374 44.2909 40.6088C44.2629 40.5802 44.229 40.5579 44.1916 40.5435C44.1543 40.5292 44.1142 40.523 44.0743 40.5255H43.7629V41.1353H44.0677ZM43.4383 40.2469H44.13C44.2065 40.2435 44.2829 40.2563 44.3541 40.2844C44.4253 40.3125 44.4898 40.3554 44.5434 40.4101C44.5969 40.4649 44.6382 40.5304 44.6647 40.6022C44.6912 40.6741 44.7023 40.7507 44.6971 40.8271C44.7026 40.9042 44.692 40.9816 44.6658 41.0544C44.6396 41.1271 44.5984 41.1936 44.545 41.2495C44.4916 41.3053 44.4271 41.3494 44.3556 41.3789C44.2841 41.4083 44.2073 41.4225 44.13 41.4205H43.7629V42.0368H43.4351V40.2469H43.4383Z" fill="#D9732A"/>
<path d="M44.9367 40.7516H45.2449V40.9713C45.2469 41.0018 45.2469 41.0325 45.2449 41.0631C45.2686 40.9721 45.3209 40.8912 45.3941 40.8322C45.4673 40.7732 45.5574 40.7392 45.6514 40.7352C45.671 40.7331 45.6908 40.7331 45.7104 40.7352V41.0631C45.6853 41.0608 45.6601 41.0608 45.635 41.0631C45.5545 41.0628 45.4763 41.0894 45.4128 41.1387C45.3492 41.188 45.304 41.2572 45.2842 41.3352C45.265 41.4034 45.2562 41.4741 45.258 41.545V42.0531H44.9302V40.768L44.9367 40.7516Z" fill="#D9732A"/>
<path d="M46.5397 41.7942C46.6203 41.7981 46.7002 41.7778 46.7692 41.7358C46.8381 41.6938 46.8928 41.6321 46.9263 41.5586C46.9597 41.4852 46.9704 41.4034 46.9569 41.3238C46.9433 41.2443 46.9062 41.1706 46.8504 41.1123C46.7945 41.0541 46.7224 41.0139 46.6435 40.9971C46.5646 40.9803 46.4824 40.9875 46.4077 41.0178C46.3329 41.0482 46.2689 41.1003 46.2241 41.1674C46.1793 41.2345 46.1556 41.3135 46.1562 41.3942C46.1535 41.4461 46.1614 41.4979 46.1795 41.5466C46.1976 41.5952 46.2255 41.6397 46.2615 41.6771C46.2974 41.7146 46.3406 41.7443 46.3885 41.7644C46.4363 41.7846 46.4878 41.7947 46.5397 41.7942ZM46.5397 40.7189C46.6321 40.7125 46.7249 40.7251 46.8122 40.756C46.8995 40.787 46.9795 40.8355 47.0473 40.8987C47.115 40.9619 47.1691 41.0384 47.206 41.1233C47.2429 41.2083 47.262 41.3 47.262 41.3926C47.262 41.4852 47.2429 41.5769 47.206 41.6619C47.1691 41.7468 47.115 41.8233 47.0473 41.8865C46.9795 41.9497 46.8995 41.9982 46.8122 42.0292C46.7249 42.0601 46.6321 42.0727 46.5397 42.0663C46.4473 42.0727 46.3545 42.0601 46.2672 42.0292C46.1799 41.9982 46.0998 41.9497 46.0321 41.8865C45.9643 41.8233 45.9103 41.7468 45.8734 41.6619C45.8364 41.5769 45.8174 41.4852 45.8174 41.3926C45.8174 41.3 45.8364 41.2083 45.8734 41.1233C45.9103 41.0384 45.9643 40.9619 46.0321 40.8987C46.0998 40.8355 46.1799 40.787 46.2672 40.756C46.3545 40.7251 46.4473 40.7125 46.5397 40.7189Z" fill="#D9732A"/>
<path d="M47.3262 40.7517H47.654L47.9228 41.5483C47.949 41.6237 47.9654 41.7417 47.9687 41.7417C47.9687 41.7417 47.9916 41.6237 48.0146 41.5483L48.2834 40.7517H48.6112L48.149 42.0368H47.772L47.3032 40.7517H47.3262Z" fill="#D9732A"/>
<path d="M48.8145 40.7517H49.1423V42.0367H48.8145V40.7517ZM48.8145 40.2468H49.1423V40.5484H48.8145V40.2632V40.2468Z" fill="#D9732A"/>
<path d="M50.0407 41.7974C50.2079 41.7974 50.3685 41.6761 50.3685 41.3909C50.3685 41.191 50.2636 40.9943 50.0407 40.9943C49.8178 40.9943 49.7129 41.1385 49.7129 41.3942C49.7129 41.6499 49.844 41.7974 50.0407 41.7974ZM49.9817 40.7189C50.0524 40.7111 50.1239 40.7222 50.189 40.751C50.254 40.7797 50.3103 40.8252 50.3521 40.8828C50.3521 40.8828 50.3521 40.85 50.3521 40.8107V40.2468H50.6799V42.0367H50.3783V41.9318C50.376 41.9035 50.376 41.875 50.3783 41.8466C50.3374 41.9163 50.2782 41.9736 50.2072 42.0123C50.1362 42.051 50.0559 42.0697 49.9751 42.0662C49.8936 42.0635 49.8136 42.0441 49.7399 42.009C49.6663 41.974 49.6007 41.9242 49.5471 41.8627C49.4936 41.8011 49.4533 41.7292 49.4288 41.6515C49.4043 41.5737 49.3961 41.4917 49.4047 41.4106C49.3947 41.3272 49.4021 41.2426 49.4267 41.1622C49.4512 41.0818 49.4922 41.0075 49.5472 40.9439C49.6021 40.8803 49.6697 40.8289 49.7457 40.793C49.8216 40.7571 49.9042 40.7374 49.9882 40.7353L49.9817 40.7189Z" fill="#D9732A"/>
<path d="M51.8369 41.2334C51.8397 41.199 51.8351 41.1643 51.8236 41.1317C51.8121 41.0991 51.7938 41.0693 51.77 41.0442C51.7462 41.0192 51.7173 40.9994 51.6854 40.9863C51.6534 40.9731 51.619 40.9668 51.5845 40.9679C51.509 40.9649 51.4353 40.9907 51.3781 41.04C51.3209 41.0893 51.2846 41.1584 51.2763 41.2334H51.8369ZM51.591 40.7187C51.6702 40.7165 51.749 40.7311 51.8221 40.7617C51.8952 40.7923 51.9609 40.8382 52.0149 40.8962C52.0689 40.9542 52.1099 41.0231 52.1352 41.0982C52.1604 41.1733 52.1694 41.2529 52.1614 41.3318C52.1614 41.3678 52.1614 41.4531 52.1614 41.4531H51.2763C51.2855 41.5467 51.3305 41.6331 51.402 41.6942C51.4735 41.7554 51.5659 41.7864 51.6599 41.7809C51.7952 41.7745 51.925 41.7252 52.0303 41.6399L52.1548 41.8694C52.009 41.9893 51.8257 42.0543 51.6369 42.053C51.5481 42.0574 51.4593 42.0437 51.3759 42.0128C51.2926 41.9818 51.2164 41.9343 51.152 41.8729C51.0876 41.8116 51.0363 41.7378 51.0014 41.656C50.9664 41.5743 50.9484 41.4863 50.9485 41.3973C50.943 41.3089 50.956 41.2202 50.9867 41.1371C51.0174 41.054 51.0652 40.9782 51.1269 40.9146C51.1887 40.851 51.263 40.8011 51.3452 40.7679C51.4274 40.7347 51.5156 40.7191 51.6041 40.722L51.591 40.7187Z" fill="#D9732A"/>
<path d="M52.4268 40.7517H52.7317V40.9714C52.7317 41.0206 52.7317 41.0632 52.7317 41.0632C52.7566 40.9722 52.8096 40.8915 52.8832 40.8326C52.9569 40.7737 53.0473 40.7396 53.1415 40.7354H53.2005V41.0632C53.1754 41.0609 53.1501 41.0609 53.1251 41.0632C53.0446 41.0629 52.9664 41.0895 52.9029 41.1388C52.8393 41.1881 52.794 41.2573 52.7743 41.3353C52.754 41.4033 52.744 41.474 52.7448 41.5451V42.0532H52.417V40.7681L52.4268 40.7517Z" fill="#D9732A"/>
<path d="M53.4529 41.6532C53.5494 41.7403 53.6737 41.7903 53.8037 41.7942C53.8954 41.7942 53.9741 41.7548 53.9741 41.6794C53.9741 41.486 53.348 41.5122 53.348 41.0992C53.348 40.8599 53.5644 40.7189 53.8397 40.7189C53.9976 40.7104 54.1526 40.7633 54.2724 40.8664L54.1544 41.1024C54.062 41.0273 53.9457 40.9878 53.8266 40.991C53.7447 40.991 53.6627 41.0271 53.6627 41.109C53.6627 41.2893 54.2888 41.2664 54.2888 41.6827C54.2888 41.8958 54.102 42.0662 53.7971 42.0662C53.6132 42.0701 53.4348 42.0032 53.2988 41.8794L53.4431 41.6532H53.4529Z" fill="#D9732A"/>
<path d="M55.8133 40.5484C55.8133 40.5484 55.7706 40.7254 55.7379 40.827L55.5772 41.3057H56.046L55.8886 40.827C55.8559 40.7254 55.8165 40.5484 55.8165 40.5484H55.8133ZM56.1411 41.5712H55.4854L55.3346 42.0301H55.0068L55.6362 40.2402H55.964L56.5934 42.0301H56.2656L56.1148 41.5712H56.1411Z" fill="#D9732A"/>
<path d="M56.8131 41.6532C56.9096 41.7403 57.0339 41.7903 57.1639 41.7942C57.2557 41.7942 57.3343 41.7548 57.3343 41.6794C57.3343 41.486 56.7082 41.5122 56.7082 41.0992C56.7082 40.8599 56.9246 40.7189 57.1999 40.7189C57.3578 40.7104 57.5128 40.7633 57.6326 40.8664L57.5146 41.1024C57.4228 41.0262 57.3061 40.9866 57.1868 40.991C57.1016 40.991 57.0196 41.0271 57.0196 41.109C57.0196 41.2893 57.6457 41.2664 57.6457 41.6827C57.6457 41.8958 57.4589 42.0662 57.154 42.0662C56.9703 42.0691 56.7923 42.0023 56.6558 41.8794L56.8 41.6532H56.8131Z" fill="#D9732A"/>
<path d="M57.9538 41.6532C58.0498 41.7411 58.1744 41.7912 58.3046 41.7941C58.3964 41.7941 58.475 41.7548 58.475 41.6794C58.475 41.486 57.8489 41.5122 57.8489 41.0992C57.8489 40.8598 58.062 40.7189 58.3406 40.7189C58.4965 40.7157 58.6477 40.7719 58.7635 40.8762L58.6422 41.1123C58.5504 41.0361 58.4337 40.9964 58.3144 41.0008C58.2324 41.0008 58.1505 41.0369 58.1505 41.1188C58.1505 41.2991 58.7766 41.2762 58.7766 41.6925C58.7766 41.9056 58.5898 42.0761 58.2849 42.0761C58.101 42.0799 57.9226 42.013 57.7866 41.8892L57.9309 41.663L57.9538 41.6532Z" fill="#D9732A"/>
<path d="M59.6715 41.7942C59.7521 41.7981 59.832 41.7778 59.9009 41.7358C59.9698 41.6938 60.0246 41.6321 60.058 41.5586C60.0915 41.4852 60.1021 41.4034 60.0886 41.3238C60.0751 41.2442 60.038 41.1706 59.9821 41.1123C59.9263 41.0541 59.8542 41.0139 59.7753 40.9971C59.6964 40.9802 59.6142 40.9875 59.5394 41.0178C59.4646 41.0482 59.4007 41.1003 59.3559 41.1674C59.311 41.2345 59.2874 41.3135 59.2879 41.3942C59.2852 41.4461 59.2932 41.4979 59.3113 41.5466C59.3294 41.5952 59.3573 41.6396 59.3932 41.6771C59.4291 41.7146 59.4724 41.7443 59.5202 41.7644C59.5681 41.7846 59.6195 41.7947 59.6715 41.7942ZM59.6715 40.7189C59.8034 40.7253 59.9306 40.7703 60.0373 40.8483C60.1439 40.9263 60.2254 41.0339 60.2715 41.1577C60.3176 41.2815 60.3264 41.4162 60.2967 41.5449C60.2671 41.6737 60.2003 41.7909 60.1047 41.8821C60.0091 41.9733 59.8888 42.0345 59.7588 42.058C59.6288 42.0815 59.4947 42.0663 59.3732 42.0144C59.2517 41.9624 59.1482 41.876 59.0753 41.7658C59.0025 41.6555 58.9635 41.5264 58.9634 41.3942C58.9637 41.3028 58.9825 41.2125 59.0187 41.1285C59.0548 41.0446 59.1075 40.9688 59.1736 40.9058C59.2397 40.8427 59.3179 40.7937 59.4035 40.7615C59.489 40.7294 59.5802 40.7149 59.6715 40.7189Z" fill="#D9732A"/>
<path d="M61.2387 40.7189C61.3301 40.7148 61.4214 40.7299 61.5067 40.7632C61.5919 40.7965 61.6693 40.8473 61.7337 40.9123L61.5927 41.132C61.5044 41.0464 61.3878 40.9962 61.2649 40.991C61.2123 40.9896 61.16 40.9991 61.1112 41.0187C61.0624 41.0384 61.0182 41.068 60.9813 41.1055C60.9444 41.143 60.9156 41.1877 60.8967 41.2368C60.8779 41.2859 60.8693 41.3384 60.8716 41.391C60.8702 41.4443 60.8797 41.4973 60.8995 41.5468C60.9193 41.5964 60.9489 41.6414 60.9866 41.6791C61.0244 41.7168 61.0693 41.7465 61.1189 41.7662C61.1684 41.786 61.2214 41.7955 61.2748 41.7942C61.4161 41.7868 61.55 41.7286 61.6517 41.6303L61.7763 41.8565C61.7064 41.9253 61.6234 41.9793 61.5321 42.0154C61.4409 42.0514 61.3433 42.0687 61.2453 42.0663C61.1528 42.0727 61.0601 42.0601 60.9728 42.0292C60.8854 41.9982 60.8054 41.9497 60.7377 41.8865C60.6699 41.8233 60.6159 41.7468 60.5789 41.6619C60.542 41.5769 60.5229 41.4852 60.5229 41.3926C60.5229 41.3 60.542 41.2083 60.5789 41.1233C60.6159 41.0384 60.6699 40.9619 60.7377 40.8987C60.8054 40.8355 60.8854 40.787 60.9728 40.756C61.0601 40.7251 61.1528 40.7125 61.2453 40.7189H61.2387Z" fill="#D9732A"/>
<path d="M62.0088 40.7517H62.3366V42.0367H62.0088V40.7517ZM62.0088 40.2468H62.3366V40.5484H62.0088V40.2632V40.2468Z" fill="#D9732A"/>
<path d="M63.0907 41.817C63.1712 41.808 63.2456 41.7696 63.2995 41.7091C63.3534 41.6485 63.3829 41.5702 63.3824 41.4891V41.4596H63.3267C63.1628 41.4596 62.8973 41.4826 62.8973 41.6596C62.8975 41.6838 62.9029 41.7076 62.9131 41.7296C62.9233 41.7515 62.938 41.771 62.9563 41.7868C62.9746 41.8027 62.996 41.8144 63.0192 41.8213C63.0424 41.8282 63.0667 41.83 63.0907 41.8268V41.817ZM63.3366 41.2302H63.3792V41.2039C63.3792 41.0367 63.2743 40.9777 63.13 40.9777C63.0038 40.9856 62.8822 41.0287 62.7793 41.1023L62.658 40.8728C62.8053 40.7678 62.9819 40.7116 63.1628 40.7122C63.2333 40.7037 63.3049 40.711 63.3722 40.7335C63.4396 40.7561 63.501 40.7934 63.5522 40.8426C63.6034 40.8919 63.6429 40.952 63.668 41.0184C63.693 41.0849 63.703 41.1561 63.6971 41.2269V42.03H63.4021V41.9251C63.4021 41.8727 63.4021 41.8333 63.4021 41.8333C63.3655 41.9051 63.3088 41.9646 63.239 42.0047C63.1691 42.0449 63.0892 42.0639 63.0087 42.0595C62.9534 42.0641 62.8977 42.0571 62.8451 42.0391C62.7926 42.021 62.7443 41.9924 62.7034 41.9548C62.6625 41.9172 62.6297 41.8716 62.6072 41.8208C62.5848 41.77 62.573 41.7151 62.5728 41.6596C62.5728 41.2498 63.1268 41.2236 63.3366 41.2236V41.2302Z" fill="#D9732A"/>
<path d="M64.0773 41.0237H63.9102V40.7713H64.0839V40.4009H64.4117V40.7713H64.7035V41.0237H64.4117V41.5319C64.4096 41.5651 64.4148 41.5984 64.4269 41.6295C64.439 41.6605 64.4577 41.6885 64.4817 41.7116C64.5057 41.7347 64.5345 41.7523 64.566 41.7631C64.5975 41.774 64.631 41.7779 64.6641 41.7745C64.6837 41.7769 64.7035 41.7769 64.7231 41.7745V42.0564C64.6904 42.059 64.6575 42.059 64.6248 42.0564C64.5566 42.0661 64.487 42.0606 64.4211 42.0404C64.3553 42.0202 64.2947 41.9857 64.2436 41.9393C64.1926 41.893 64.1524 41.836 64.126 41.7724C64.0995 41.7087 64.0874 41.6401 64.0905 41.5712V41.0303L64.0773 41.0237Z" fill="#D9732A"/>
<path d="M64.9722 40.7517H65.3V42.0367H64.9722V40.7517ZM64.9722 40.2468H65.3V40.5484H64.9722V40.2632V40.2468Z" fill="#D9732A"/>
<path d="M66.2608 41.7942C66.3414 41.7981 66.4213 41.7778 66.4903 41.7358C66.5592 41.6938 66.6139 41.6321 66.6474 41.5586C66.6808 41.4852 66.6915 41.4034 66.678 41.3238C66.6644 41.2442 66.6273 41.1706 66.5715 41.1123C66.5156 41.0541 66.4436 41.0139 66.3646 40.9971C66.2857 40.9802 66.2035 40.9875 66.1288 41.0178C66.054 41.0482 65.99 41.1003 65.9452 41.1674C65.9004 41.2345 65.8767 41.3135 65.8773 41.3942C65.8746 41.4461 65.8825 41.4979 65.9006 41.5466C65.9188 41.5952 65.9466 41.6396 65.9826 41.6771C66.0185 41.7146 66.0617 41.7443 66.1096 41.7644C66.1574 41.7846 66.2089 41.7947 66.2608 41.7942ZM66.2608 40.7189C66.3928 40.7253 66.52 40.7703 66.6266 40.8483C66.7333 40.9263 66.8147 41.0339 66.8608 41.1577C66.907 41.2815 66.9157 41.4162 66.8861 41.5449C66.8565 41.6737 66.7897 41.7909 66.6941 41.8821C66.5985 41.9733 66.4782 42.0345 66.3482 42.058C66.2182 42.0815 66.0841 42.0663 65.9626 42.0144C65.8411 41.9624 65.7375 41.876 65.6647 41.7658C65.5918 41.6555 65.5529 41.5264 65.5527 41.3942C65.5531 41.3028 65.5719 41.2125 65.608 41.1285C65.6441 41.0446 65.6969 40.9688 65.763 40.9058C65.8291 40.8427 65.9073 40.7937 65.9928 40.7615C66.0784 40.7294 66.1695 40.7149 66.2608 40.7189Z" fill="#D9732A"/>
<path d="M67.2243 40.7517H67.5291V40.8993C67.5291 40.9484 67.5291 40.9878 67.5291 40.9878C67.5727 40.9044 67.6389 40.8351 67.72 40.7875C67.8012 40.74 67.8941 40.7162 67.9881 40.719C68.2733 40.719 68.4339 40.8698 68.4339 41.2107V42.0368H68.1061V41.2763C68.1061 41.1189 68.0667 41.014 67.9028 41.014C67.8241 41.0133 67.7474 41.0387 67.6845 41.0861C67.6217 41.1335 67.5763 41.2004 67.5554 41.2763C67.5393 41.3316 67.5315 41.3891 67.5324 41.4467V42.0368H67.2046V40.7517H67.2243Z" fill="#D9732A"/>
<path d="M31.7093 80.628V79.3396H28.8409C30.6865 78.0283 31.6568 77.0186 31.6568 75.845C31.6568 74.4715 30.4898 73.6486 29.0343 73.6486C28.5379 73.6376 28.0447 73.7322 27.5876 73.926C27.1304 74.1199 26.7196 74.4086 26.3823 74.773L27.2182 75.7401C27.4513 75.4863 27.7353 75.2845 28.0516 75.1478C28.3679 75.0111 28.7094 74.9426 29.054 74.9468C29.6309 74.9468 30.1784 75.2451 30.1784 75.845C30.1784 76.6908 29.3523 77.4022 26.5397 79.474V80.628H31.7093ZM32.5845 77.1957C32.5845 78.9692 33.4598 80.7525 35.4299 80.7525C37.4001 80.7525 38.2753 78.9692 38.2753 77.1957C38.2753 75.4221 37.3902 73.6585 35.4299 73.6585C33.4696 73.6585 32.5845 75.432 32.5845 77.2055V77.1957ZM36.7805 77.1957C36.7805 78.4643 36.4101 79.4544 35.4299 79.4544C34.4498 79.4544 34.0695 78.4709 34.0695 77.1957C34.0695 75.9204 34.4399 74.9468 35.4299 74.9468C36.4199 74.9468 36.7805 75.9303 36.7805 77.1957ZM44.2874 80.628V79.3396H41.4223C43.2679 78.0283 44.2349 77.0186 44.2349 75.845C44.2349 74.4715 43.0712 73.6486 41.6124 73.6486C41.1165 73.6377 40.6239 73.7323 40.1672 73.9261C39.7106 74.12 39.3003 74.4087 38.9637 74.773L39.7996 75.7401C40.0321 75.4864 40.3154 75.2846 40.6312 75.1479C40.947 75.0112 41.288 74.9427 41.6321 74.9468C42.2123 74.9468 42.7565 75.2451 42.7565 75.845C42.7565 76.6908 41.9337 77.4022 39.1178 79.474V80.628H44.2874ZM50.4732 80.628V79.3396H47.6179C49.4635 78.0283 50.4305 77.0186 50.4305 75.845C50.4305 74.4715 49.2668 73.6486 47.8081 73.6486C47.3121 73.6377 46.8195 73.7323 46.3628 73.9261C45.9062 74.12 45.496 74.4087 45.1593 74.773L45.9953 75.7401C46.2282 75.4862 46.5121 75.2842 46.8285 75.1475C47.1448 75.0108 47.4864 74.9424 47.831 74.9468C48.4079 74.9468 48.9554 75.2451 48.9554 75.845C48.9554 76.6908 48.1293 77.4022 45.3134 79.474V80.628H50.4732ZM53.9906 77.6776V76.563H51.5156V77.6776H53.9906ZM60.3731 80.628V79.3396H57.5047C59.3503 78.0283 60.3206 77.0186 60.3206 75.845C60.3206 74.4715 59.1569 73.6486 57.6981 73.6486C57.2021 73.6373 56.7093 73.7317 56.2526 73.9255C55.7959 74.1194 55.3858 74.4083 55.0494 74.773L55.882 75.7401C56.1151 75.4863 56.3991 75.2845 56.7154 75.1478C57.0317 75.0111 57.3732 74.9426 57.7178 74.9468C58.2947 74.9468 58.8422 75.2451 58.8422 75.845C58.8422 76.6908 58.0161 77.4022 55.2035 79.474V80.628H60.3731ZM61.1041 79.6445C61.6089 80.2641 62.5464 80.7493 63.8151 80.7493C65.4541 80.7493 66.5261 79.9133 66.5261 78.7266C66.5261 77.6972 65.6213 77.1498 64.9198 77.0875C65.6836 76.9531 66.4244 76.3859 66.4244 75.5205C66.4244 74.3764 65.441 73.6552 63.8249 73.6552C63.3348 73.6361 62.8464 73.7239 62.3935 73.9124C61.9407 74.1009 61.5343 74.3856 61.2024 74.7468L61.9236 75.6549C62.3901 75.1924 63.0205 74.9331 63.6774 74.9337C64.3986 74.9337 64.9558 75.2123 64.9558 75.7565C64.9558 76.3007 64.451 76.5203 63.6872 76.5203C63.4217 76.5203 62.9562 76.5203 62.8316 76.5203V77.7989C62.9365 77.7989 63.3987 77.7989 63.6872 77.7989C64.6477 77.7989 65.0706 78.0578 65.0706 78.6119C65.0706 79.1659 64.6051 79.5003 63.7593 79.5003C63.05 79.4951 62.3704 79.2141 61.8646 78.7168L61.1008 79.674L61.1041 79.6445Z" fill="white"/>
<path d="M92.8363 50.7993H79.6387V72.4815H92.8363V50.7993Z" fill="#D9732A"/>
<g style="mix-blend-mode:multiply" opacity="0.2">
<path d="M79.6387 72.4815V69.7344H86.821L79.6387 72.4815Z" fill="#231F20"/>
</g>
<path d="M0.209961 50.7993V72.4815H13.4076V50.7993H0.209961Z" fill="#D9732A"/>
<g style="mix-blend-mode:multiply" opacity="0.2">
<path d="M13.4078 72.4815L6.17627 69.7344H13.4078V72.4815Z" fill="#231F20"/>
</g>
<path d="M86.8243 48.0522H6.17627V69.7377H86.8243V48.0522Z" fill="#F9A138"/>
<path d="M19.9868 57.5952V50.3831H21.8455V57.5952H19.9868Z" fill="white"/>
<path d="M28.0475 57.5952L24.9988 53.2417V57.5952H23.1401V50.3831H25.0546L27.9688 54.5333V50.3831H29.8406V57.5952H28.0475Z" fill="white"/>
<path d="M31.1357 57.5952V50.3831H34.1778C36.4463 50.3831 38.0755 51.7435 38.0755 53.9891C38.0755 56.2347 36.4364 57.5952 34.1877 57.5952H31.1357ZM32.9944 55.9724H34.1778C34.4396 55.9803 34.7003 55.9342 34.9435 55.8371C35.1868 55.74 35.4075 55.5939 35.5919 55.4079C35.7764 55.2219 35.9206 55 36.0157 54.7559C36.1108 54.5119 36.1547 54.2509 36.1447 53.9891C36.1447 52.8745 35.4891 52.0222 34.1582 52.0222H32.9813L32.9944 55.9724Z" fill="white"/>
<path d="M38.9868 50.3831H40.8783V54.6087C40.8783 55.461 41.3307 56.0773 42.337 56.0773C43.3434 56.0773 43.786 55.461 43.786 54.6087V50.3831H45.6742V54.6448C45.6742 56.4379 44.6481 57.7033 42.337 57.7033C40.026 57.7033 38.9868 56.4281 38.9868 54.6579V50.3831Z" fill="white"/>
<path d="M47.4343 55.1889C48.0437 55.7963 48.8686 56.1381 49.729 56.1396C50.3682 56.1396 50.7551 55.8675 50.7551 55.5233C50.7551 55.1135 50.2928 54.9496 49.5258 54.7889C48.3358 54.5496 46.6738 54.248 46.6738 52.5401C46.6738 51.3304 47.6999 50.2814 49.5454 50.2814C50.611 50.2505 51.6514 50.6082 52.4728 51.2878L51.4598 52.6155C50.8826 52.1507 50.1683 51.8891 49.4274 51.8713C48.8111 51.8713 48.5751 52.1205 48.5751 52.4319C48.5751 52.8089 49.0177 52.94 49.8175 53.0875C51.0042 53.3367 52.6465 53.6809 52.6465 55.3135C52.6465 56.7624 51.5779 57.723 49.6438 57.723C48.185 57.723 47.1688 57.2706 46.4443 56.5789L47.4343 55.1889Z" fill="white"/>
<path d="M55.0953 57.5952V52.0222H53.0728V50.3831H58.9734V52.0222H56.9639V57.5952H55.0953Z" fill="white"/>
<path d="M63.8642 57.5952L62.6546 55.1529H61.7137V57.5952H59.8452V50.3831H63.4511C65.0509 50.3831 65.9589 51.4419 65.9589 52.7827C65.9823 53.2495 65.855 53.7115 65.5959 54.1004C65.3368 54.4894 64.9596 54.7848 64.5198 54.9431L65.9917 57.5919L63.8642 57.5952ZM63.1725 51.9533H61.7137V53.5761H63.1823C63.2964 53.5886 63.4118 53.577 63.5211 53.542C63.6303 53.5069 63.731 53.4493 63.8164 53.3727C63.9019 53.2961 63.9702 53.2024 64.017 53.0976C64.0638 52.9929 64.088 52.8794 64.088 52.7647C64.088 52.6499 64.0638 52.5365 64.017 52.4317C63.9702 52.327 63.9019 52.2332 63.8164 52.1567C63.731 52.0801 63.6303 52.0224 63.5211 51.9874C63.4118 51.9524 63.2964 51.9407 63.1823 51.9533H63.1725Z" fill="white"/>
<path d="M68.7486 57.5952V54.6874L66.0146 50.3831H68.1094L69.6763 53.0417L71.2203 50.3831H73.3281L70.6073 54.6841V57.5952H68.7486Z" fill="white"/>
<path d="M22.6226 67.5053V60.2932H26.2285C27.8479 60.2932 28.7362 61.3849 28.7362 62.6896C28.7362 63.9943 27.8479 65.0565 26.2285 65.0565H24.4812V67.4988L22.6226 67.5053ZM25.9826 61.8569H24.4812V63.496H25.9826C26.0933 63.5062 26.2048 63.4929 26.31 63.4572C26.4152 63.4214 26.5117 63.364 26.5932 63.2886C26.6748 63.2132 26.7397 63.1215 26.7836 63.0194C26.8275 62.9174 26.8494 62.8072 26.848 62.6962C26.853 62.5824 26.8338 62.4688 26.7917 62.363C26.7496 62.2572 26.6855 62.1615 26.6038 62.0822C26.522 62.0029 26.4244 61.9419 26.3173 61.903C26.2103 61.8642 26.0962 61.8485 25.9826 61.8569Z" fill="white"/>
<path d="M33.7812 67.5053L33.414 66.4137H30.4211L30.054 67.5053H28.0347L30.7457 60.2932H33.0797L35.8038 67.5053H33.7812ZM31.9127 61.9323L30.8997 64.8467H32.9191L31.9127 61.9323Z" fill="white"/>
<path d="M40.3505 67.5053L39.1409 65.063H38.1902V67.5053H36.3315V60.2932H39.9375C41.5339 60.2932 42.4419 61.3521 42.4419 62.6896C42.4652 63.1563 42.3384 63.6183 42.08 64.0076C41.8216 64.397 41.4452 64.6934 41.0061 64.8532L42.4747 67.4988L40.3505 67.5053ZM39.6588 61.8569H38.1902V63.496H39.6588C39.7713 63.5062 39.8846 63.4928 39.9916 63.4567C40.0986 63.4206 40.1969 63.3626 40.2802 63.2864C40.3636 63.2103 40.4301 63.1176 40.4757 63.0142C40.5212 62.9109 40.5447 62.7992 40.5447 62.6863C40.5447 62.5734 40.5212 62.4617 40.4757 62.3584C40.4301 62.2551 40.3636 62.1624 40.2802 62.0862C40.1969 62.01 40.0986 61.9521 39.9916 61.916C39.8846 61.8799 39.7713 61.8665 39.6588 61.8766V61.8569Z" fill="white"/>
<path d="M44.9953 67.5052V61.9322H42.9629V60.3127H48.8635V61.9322H46.854V67.5052H44.9953Z" fill="white"/>
<path d="M54.6399 67.5053L51.5945 63.1683V67.5217H49.7358V60.3096H51.647L54.5645 64.4566V60.2998H56.433V67.5119L54.6399 67.5053Z" fill="white"/>
<path d="M57.731 67.5053V60.2932H63.0251V61.8569H59.5864V63.0568H62.9366V64.6336H59.5864V65.9285H63.0251V67.4955L57.731 67.5053Z" fill="white"/>
<path d="M68.1093 67.5053L66.8997 65.063H65.949V67.5053H64.0903V60.2932H67.6963C69.296 60.2932 70.204 61.3521 70.204 62.6896C70.2271 63.1567 70.0997 63.619 69.8407 64.0084C69.5817 64.3978 69.2046 64.6939 68.7649 64.8532L70.2368 67.4988L68.1093 67.5053ZM67.4176 61.8569H65.949V63.496H67.4176C67.5301 63.5062 67.6434 63.4928 67.7504 63.4567C67.8574 63.4206 67.9557 63.3626 68.039 63.2864C68.1224 63.2103 68.1889 63.1176 68.2345 63.0142C68.28 62.9109 68.3035 62.7992 68.3035 62.6863C68.3035 62.5734 68.28 62.4617 68.2345 62.3584C68.1889 62.2551 68.1224 62.1624 68.039 62.0862C67.9557 62.01 67.8574 61.9521 67.7504 61.916C67.6434 61.8799 67.5301 61.8665 67.4176 61.8766V61.8569Z" fill="white"/>
</svg>
