<svg width="260" height="51" viewBox="0 0 260 51" fill="none" xmlns="http://www.w3.org/2000/svg">
<g clip-path="url(#clip0_2457_7643)">
<path d="M122.217 30.2995C122.668 33.1547 124.776 34.2897 127.907 34.2897C130.638 34.2897 132.512 33.403 132.512 31.9975C132.512 30.9335 131.611 30.0911 129.782 29.7807L123.983 28.8275C119.829 28.1004 115.964 25.8614 115.964 20.878C115.964 15.3404 120.739 12.0374 127.736 12.0374C132.399 12.0374 139.396 13.6024 139.964 21.1573L132.755 21.215C132.584 18.8075 130.367 17.8587 127.75 17.8587C125.019 17.8587 123.695 18.9183 123.695 20.1509C123.695 21.1573 124.434 22.2214 126.934 22.6692L131.89 23.4539C136.328 24.2387 140.139 26.3092 140.139 31.3458C140.139 37.3888 134.792 40.4126 127.853 40.4126C121.546 40.4126 115.567 37.8943 115 30.2817L122.217 30.2995Z" fill="#27AAE1"/>
<path d="M179.899 17.2024V15.6418C179.767 15.4591 179.59 15.3113 179.386 15.2115C179.182 15.1118 178.956 15.0631 178.728 15.0698C178.552 15.0744 178.38 15.1133 178.22 15.1842C178.06 15.2552 177.916 15.3568 177.796 15.4831C177.677 15.6094 177.584 15.7579 177.524 15.9199C177.463 16.0819 177.436 16.2541 177.444 16.4265C177.438 16.5972 177.466 16.7674 177.528 16.9271C177.589 17.0868 177.683 17.2328 177.802 17.3566C177.922 17.4804 178.065 17.5796 178.224 17.6483C178.383 17.7169 178.554 17.7538 178.728 17.7566C178.954 17.7641 179.179 17.7171 179.384 17.6198C179.588 17.5225 179.765 17.3777 179.899 17.198M181.341 18.8606H179.899V18.5724C179.563 18.7684 179.186 18.8862 178.796 18.917C178.406 18.9478 178.015 18.8907 177.651 18.75C177.287 18.6093 176.961 18.3887 176.697 18.1052C176.433 17.8216 176.238 17.4825 176.128 17.1136C176.017 16.7448 175.993 16.3559 176.058 15.9767C176.124 15.5975 176.276 15.2379 176.504 14.9254C176.731 14.6128 177.028 14.3555 177.373 14.1731C177.717 13.9907 178.098 13.888 178.489 13.8728C178.988 13.8635 179.478 13.9992 179.899 14.2629V13.9747H181.341V18.8606Z" fill="#2E3192"/>
<path d="M183.161 17.1803C183.242 17.7034 183.612 17.9074 184.197 17.9074C184.693 17.9074 185.035 17.7434 185.035 17.4862C185.035 17.2291 184.869 17.1404 184.54 17.0783L183.481 16.9054C182.724 16.7724 182.021 16.3645 182.021 15.46C182.021 14.4492 182.891 13.8462 184.166 13.8462C185.017 13.8462 186.288 14.1344 186.391 15.5088H185.076C185.049 15.0654 184.625 14.897 184.175 14.897C183.724 14.897 183.44 15.0876 183.44 15.3137C183.44 15.5398 183.575 15.6906 184.031 15.7571L184.932 15.9034C185.738 16.0453 186.432 16.4221 186.432 17.3399C186.432 18.4394 185.459 18.9892 184.179 18.9892C183.026 18.9892 181.927 18.5458 181.836 17.1448L183.161 17.1803Z" fill="#2E3192"/>
<path d="M188.009 17.1803C188.09 17.7034 188.459 17.9074 189.045 17.9074C189.54 17.9074 189.883 17.7434 189.883 17.4862C189.883 17.2291 189.716 17.1404 189.387 17.0783L188.329 16.9054C187.572 16.7724 186.869 16.3645 186.869 15.46C186.869 14.4492 187.738 13.8462 189.013 13.8462C189.86 13.8462 191.135 14.1344 191.239 15.5088H189.923C189.892 15.0654 189.473 14.897 189.022 14.897C188.572 14.897 188.283 15.0876 188.283 15.3137C188.283 15.5398 188.419 15.6906 188.874 15.7571L189.775 15.9034C190.581 16.0453 191.275 16.4221 191.275 17.3399C191.275 18.4394 190.302 18.9892 189.022 18.9892C187.873 18.9892 186.77 18.5458 186.684 17.1448L188.009 17.1803Z" fill="#2E3192"/>
<path d="M193.37 18.8651H191.933V13.9881H193.37V18.8651ZM191.775 12.259C191.775 12.0332 191.867 11.8167 192.029 11.657C192.191 11.4974 192.411 11.4077 192.64 11.4077C192.87 11.4077 193.09 11.4974 193.252 11.657C193.414 11.8167 193.505 12.0332 193.505 12.259C193.505 12.4847 193.414 12.7013 193.252 12.8609C193.09 13.0205 192.87 13.1102 192.64 13.1102C192.411 13.1102 192.191 13.0205 192.029 12.8609C191.867 12.7013 191.775 12.4847 191.775 12.259Z" fill="#2E3192"/>
<path d="M195.226 17.1803C195.308 17.7034 195.677 17.9074 196.258 17.9074C196.758 17.9074 197.101 17.7434 197.101 17.4862C197.101 17.2291 196.934 17.1404 196.601 17.0783L195.546 16.9054C194.789 16.7724 194.087 16.3645 194.087 15.46C194.087 14.4492 194.956 13.8462 196.231 13.8462C197.078 13.8462 198.353 14.1344 198.457 15.5088H197.141C197.11 15.0654 196.691 14.897 196.24 14.897C195.79 14.897 195.501 15.0876 195.501 15.3137C195.501 15.5398 195.636 15.6906 196.091 15.7571L196.993 15.9034C197.799 16.0453 198.493 16.4221 198.493 17.3399C198.493 18.4394 197.52 18.9892 196.24 18.9892C195.091 18.9892 193.987 18.5458 193.902 17.1448L195.226 17.1803Z" fill="#2E3192"/>
<path d="M202.913 18.7941C202.479 18.9475 202.021 19.0226 201.561 19.0158C200.362 19.0158 199.574 18.1823 199.574 16.9187V15.1719H198.529V13.9792H199.574V12.2368H201.002V13.9792H202.804V15.1719H201.002V16.8966C200.992 17.0093 201.008 17.1228 201.049 17.2286C201.09 17.3344 201.155 17.4297 201.238 17.5073C201.322 17.585 201.423 17.643 201.532 17.6769C201.642 17.7109 201.758 17.72 201.872 17.7035C202.157 17.6932 202.44 17.6485 202.714 17.5705L202.913 18.7941Z" fill="#2E3192"/>
<path d="M204.908 18.8651H203.467V13.9881H204.908V18.8651ZM203.309 12.259C203.325 12.0432 203.423 11.8414 203.584 11.6941C203.745 11.5467 203.957 11.4648 204.176 11.4648C204.396 11.4648 204.608 11.5467 204.769 11.6941C204.93 11.8414 205.028 12.0432 205.044 12.259C205.028 12.4747 204.93 12.6765 204.769 12.8239C204.608 12.9712 204.396 13.0531 204.176 13.0531C203.957 13.0531 203.745 12.9712 203.584 12.8239C203.423 12.6765 203.325 12.4747 203.309 12.259Z" fill="#2E3192"/>
<path d="M208.823 18.8651H207.539L205.3 13.9836H206.823L208.179 17.0739L209.54 13.9836H211.063L208.823 18.8651Z" fill="#2E3192"/>
<path d="M212.599 15.9477H214.852C214.829 15.6911 214.704 15.4539 214.504 15.2877C214.304 15.1216 214.045 15.0401 213.784 15.061C213.513 15.0469 213.247 15.1285 213.032 15.2911C212.817 15.4537 212.668 15.6866 212.613 15.9477M216.249 16.9364H212.644C212.71 17.2059 212.871 17.4434 213.099 17.606C213.327 17.7686 213.607 17.8456 213.888 17.8231C214.048 17.8413 214.211 17.8167 214.358 17.752C214.505 17.6872 214.632 17.5847 214.726 17.4551H216.231C215.96 18.3951 215.028 18.9936 213.856 18.9936C213.169 18.9936 212.51 18.725 212.024 18.2469C211.539 17.7688 211.266 17.1204 211.266 16.4443C211.266 15.7682 211.539 15.1197 212.024 14.6416C212.51 14.1635 213.169 13.8949 213.856 13.8949C214.184 13.8849 214.511 13.9415 214.815 14.0614C215.12 14.1812 215.396 14.3616 215.627 14.5914C215.857 14.8211 216.037 15.0952 216.155 15.3965C216.273 15.6978 216.326 16.0198 216.312 16.3423C216.317 16.5467 216.306 16.7513 216.28 16.9541" fill="#2E3192"/>
<path d="M180.057 29.1864C179.623 29.3406 179.166 29.4172 178.705 29.4126C177.502 29.4126 176.718 28.5746 176.718 27.311V25.5686H175.668V24.376H176.718V22.6335H178.146V24.376H179.949V25.5686H178.146V27.3022C178.137 27.4145 178.154 27.5276 178.195 27.6328C178.236 27.738 178.301 27.8327 178.384 27.9099C178.468 27.987 178.568 28.0446 178.678 28.0783C178.787 28.112 178.903 28.121 179.016 28.1046C179.3 28.0959 179.581 28.0527 179.854 27.9761L180.057 29.1864Z" fill="#2E3192"/>
<path d="M181.764 26.3446H184.017C184.008 26.2158 183.973 26.0901 183.914 25.9746C183.855 25.8592 183.774 25.7562 183.675 25.6718C183.576 25.5873 183.461 25.523 183.336 25.4825C183.211 25.442 183.08 25.4261 182.949 25.4357C182.676 25.4227 182.407 25.5076 182.192 25.6747C181.978 25.8418 181.832 26.0798 181.782 26.3446M185.418 27.3333H181.814C181.88 27.6024 182.042 27.8393 182.27 28.0018C182.498 28.1642 182.777 28.2416 183.057 28.2201C183.218 28.2382 183.38 28.2136 183.527 28.1489C183.675 28.0842 183.802 27.9817 183.895 27.8521H185.4C185.13 28.792 184.197 29.395 183.026 29.395C182.339 29.395 181.68 29.1264 181.194 28.6483C180.708 28.1702 180.435 27.5218 180.435 26.8456C180.435 26.1695 180.708 25.5211 181.194 25.043C181.68 24.5649 182.339 24.2963 183.026 24.2963C183.354 24.2862 183.68 24.3429 183.985 24.4627C184.289 24.5826 184.566 24.763 184.796 24.9927C185.027 25.2225 185.206 25.4966 185.324 25.7979C185.442 26.0991 185.495 26.4211 185.481 26.7437C185.486 26.9481 185.476 27.1526 185.45 27.3555" fill="#2E3192"/>
<path d="M189.518 27.3421H190.96C190.878 27.9265 190.576 28.4592 190.114 28.8346C189.651 29.21 189.062 29.4005 188.464 29.3683C188.115 29.3826 187.766 29.3273 187.44 29.2058C187.113 29.0842 186.815 28.8989 186.562 28.661C186.31 28.423 186.11 28.1374 185.973 27.8212C185.836 27.5051 185.765 27.1649 185.765 26.8211C185.765 26.4774 185.836 26.1372 185.973 25.821C186.11 25.5049 186.31 25.2192 186.562 24.9813C186.815 24.7434 187.113 24.558 187.44 24.4365C187.766 24.315 188.115 24.2597 188.464 24.274C189.062 24.2418 189.651 24.4323 190.114 24.8077C190.576 25.183 190.878 25.7158 190.96 26.3002H189.518C189.465 26.0689 189.329 25.864 189.136 25.7225C188.943 25.581 188.704 25.5123 188.464 25.5287C188.13 25.548 187.816 25.6921 187.587 25.9315C187.357 26.171 187.23 26.4876 187.23 26.8167C187.23 27.1458 187.357 27.4624 187.587 27.7019C187.816 27.9413 188.13 28.0854 188.464 28.1047C188.703 28.1234 188.942 28.0566 189.135 27.9166C189.329 27.7765 189.465 27.5726 189.518 27.3421Z" fill="#2E3192"/>
<path d="M196.605 26.5795V29.2397H195.163V26.6815C195.163 25.9056 194.771 25.4888 194.096 25.4888C193.877 25.5069 193.665 25.5728 193.476 25.6818C193.286 25.7907 193.124 25.9399 193.001 26.1184V29.2574H191.559V22.0217H193.001V24.7218C193.399 24.3957 193.902 24.2184 194.42 24.2208C195.727 24.2208 196.596 25.1519 196.596 26.5795" fill="#2E3192"/>
<path d="M202.412 26.5795V29.2397H200.971V26.6815C200.971 25.9056 200.579 25.4888 199.907 25.4888C199.691 25.5061 199.482 25.5699 199.293 25.6756C199.105 25.7813 198.942 25.9264 198.817 26.1007V29.2397H197.38V24.3627H198.817V24.7085C199.216 24.3831 199.718 24.2058 200.236 24.2075C201.543 24.2075 202.412 25.1386 202.412 26.5662" fill="#2E3192"/>
<path d="M206.832 26.8234C206.845 26.6583 206.823 26.4924 206.768 26.3362C206.712 26.18 206.624 26.0368 206.509 25.9159C206.395 25.795 206.255 25.6989 206.101 25.6337C205.946 25.5686 205.779 25.5359 205.611 25.5376C205.442 25.5348 205.274 25.5666 205.117 25.6311C204.961 25.6955 204.82 25.7912 204.703 25.912C204.586 26.0328 204.496 26.1762 204.438 26.3331C204.381 26.49 204.357 26.6569 204.368 26.8234C204.35 26.9933 204.368 27.165 204.422 27.3275C204.475 27.49 204.563 27.6395 204.679 27.7665C204.796 27.8934 204.938 27.9949 205.096 28.0644C205.255 28.1339 205.426 28.1698 205.6 28.1698C205.774 28.1698 205.945 28.1339 206.104 28.0644C206.262 27.9949 206.404 27.8934 206.521 27.7665C206.637 27.6395 206.725 27.49 206.778 27.3275C206.832 27.165 206.85 26.9933 206.832 26.8234ZM208.251 26.8234C208.264 27.3429 208.119 27.8543 207.834 28.2921C207.55 28.7299 207.139 29.0743 206.655 29.2811C206.17 29.4879 205.634 29.5478 205.115 29.4531C204.596 29.3583 204.117 29.1133 203.74 28.7494C203.363 28.3854 203.105 27.919 202.999 27.41C202.893 26.9009 202.944 26.3723 203.144 25.8917C203.345 25.4111 203.687 25.0005 204.127 24.7123C204.566 24.4241 205.083 24.2715 205.611 24.274C205.958 24.2594 206.304 24.3149 206.627 24.4372C206.951 24.5595 207.246 24.7459 207.493 24.9849C207.741 25.2239 207.936 25.5105 208.066 25.8267C208.197 26.143 208.26 26.4822 208.251 26.8234Z" fill="#2E3192"/>
<path d="M210.306 22.0217H208.864V29.2618H210.306V22.0217Z" fill="#2E3192"/>
<path d="M214.798 26.8234C214.811 26.6584 214.789 26.4925 214.733 26.3363C214.678 26.18 214.59 26.0369 214.475 25.9159C214.36 25.795 214.221 25.6989 214.066 25.6338C213.912 25.5687 213.745 25.5359 213.577 25.5377C213.407 25.5342 213.238 25.5656 213.081 25.6297C212.924 25.6939 212.783 25.7895 212.665 25.9104C212.548 26.0313 212.457 26.1749 212.399 26.3321C212.341 26.4893 212.317 26.6566 212.329 26.8234C212.316 26.9928 212.338 27.1629 212.395 27.3233C212.452 27.4837 212.541 27.6309 212.659 27.7557C212.776 27.8805 212.918 27.9802 213.075 28.0486C213.233 28.1171 213.404 28.1528 213.577 28.1535C213.747 28.1504 213.916 28.113 214.071 28.0434C214.226 27.9737 214.366 27.8735 214.48 27.7488C214.594 27.6242 214.682 27.4777 214.736 27.3185C214.791 27.1594 214.812 26.9908 214.798 26.8234ZM216.217 26.8234C216.229 27.3429 216.084 27.8543 215.8 28.2922C215.515 28.73 215.104 29.0743 214.62 29.2811C214.135 29.488 213.599 29.5478 213.08 29.4531C212.561 29.3584 212.082 29.1134 211.705 28.7494C211.328 28.3855 211.07 27.9191 210.964 27.41C210.858 26.901 210.909 26.3723 211.11 25.8917C211.311 25.4112 211.653 25.0005 212.092 24.7124C212.532 24.4242 213.049 24.2716 213.577 24.2741C213.923 24.2601 214.268 24.316 214.592 24.4386C214.915 24.5611 215.21 24.7475 215.457 24.9864C215.705 25.2253 215.9 25.5116 216.03 25.8275C216.161 26.1435 216.224 26.4824 216.217 26.8234Z" fill="#2E3192"/>
<path d="M220.524 27.2802V25.9501C220.394 25.7642 220.219 25.6138 220.014 25.513C219.809 25.4122 219.581 25.3642 219.352 25.3737C219.179 25.3672 219.007 25.3965 218.846 25.4596C218.685 25.5228 218.539 25.6185 218.418 25.7405C218.297 25.8625 218.204 26.0081 218.143 26.1679C218.083 26.3277 218.058 26.4982 218.068 26.6684C218.087 26.991 218.23 27.2945 218.469 27.5163C218.708 27.7382 219.024 27.8615 219.352 27.861C219.583 27.8686 219.812 27.818 220.017 27.714C220.222 27.61 220.396 27.4561 220.524 27.2669M221.952 29.1822C221.952 30.7118 220.884 31.6296 219.384 31.6296C217.884 31.6296 216.879 30.765 216.775 29.5192H218.231C218.294 30.0291 218.708 30.366 219.393 30.366C219.549 30.3737 219.705 30.3482 219.85 30.2914C219.995 30.2346 220.126 30.1478 220.234 30.0368C220.342 29.9258 220.425 29.7932 220.477 29.6481C220.528 29.5029 220.547 29.3486 220.533 29.1955V28.6635C220.111 28.9251 219.621 29.0593 219.123 29.0492C218.491 29.0117 217.898 28.7385 217.465 28.2853C217.031 27.8321 216.79 27.2332 216.79 26.6107C216.79 25.9883 217.031 25.3893 217.465 24.9361C217.898 24.4829 218.491 24.2097 219.123 24.1722C219.622 24.1614 220.113 24.2972 220.533 24.5624V24.3673H221.961L221.952 29.1822Z" fill="#2E3192"/>
<path d="M225.372 31.6073H223.858L224.822 29.3816L222.407 24.3672H223.944L225.547 27.7013L226.998 24.3672H228.512L225.372 31.6073Z" fill="#2E3192"/>
<path d="M177.232 37.9696C177.313 38.4927 177.682 38.6923 178.268 38.6923C178.764 38.6923 179.106 38.5327 179.106 38.2755C179.106 38.0184 178.939 37.9297 178.61 37.8676L177.552 37.6947C176.795 37.5617 176.092 37.1538 176.092 36.2493C176.092 35.2385 176.961 34.6355 178.237 34.6355C179.088 34.6355 180.359 34.9237 180.462 36.2981H179.147C179.115 35.8547 178.696 35.6818 178.246 35.6818C177.795 35.6818 177.511 35.8769 177.511 36.1252C177.511 36.3735 177.646 36.502 178.101 36.5686L179.002 36.7104C179.809 36.8567 180.503 37.2336 180.503 38.1514C180.503 39.2509 179.53 39.8007 178.25 39.8007C177.097 39.8007 175.997 39.3573 175.907 37.9563L177.232 37.9696Z" fill="#2E3192"/>
<path d="M186.062 39.6544H184.621V39.3042C184.223 39.6319 183.72 39.8095 183.201 39.8052C181.899 39.8052 181.025 38.8785 181.025 37.4598V34.7686H182.467V37.3268C182.467 38.1026 182.859 38.5194 183.535 38.5194C183.75 38.5021 183.959 38.4383 184.147 38.3325C184.335 38.2268 184.496 38.0817 184.621 37.9076V34.7686H186.062V39.6544Z" fill="#2E3192"/>
<path d="M190.802 37.2159C190.81 37.0436 190.782 36.8716 190.721 36.7099C190.66 36.5482 190.568 36.3999 190.448 36.2737C190.329 36.1476 190.185 36.046 190.025 35.9748C189.866 35.9036 189.693 35.8644 189.518 35.8592C189.29 35.8525 189.064 35.9011 188.86 36.0009C188.656 36.1007 188.479 36.2484 188.347 36.4312V37.9918C188.482 38.171 188.659 38.3153 188.863 38.4126C189.067 38.5099 189.292 38.5572 189.518 38.5504C189.692 38.547 189.863 38.5098 190.021 38.4409C190.18 38.372 190.323 38.2728 190.442 38.1491C190.562 38.0254 190.655 37.8796 190.717 37.7202C190.779 37.5608 190.808 37.3909 190.802 37.2204M192.221 37.2204C192.231 37.5469 192.175 37.872 192.056 38.177C191.937 38.4819 191.757 38.7606 191.528 38.9969C191.299 39.2332 191.024 39.4224 190.72 39.5535C190.416 39.6846 190.089 39.7551 189.757 39.7608C189.258 39.7696 188.768 39.6339 188.347 39.3707V42.0308H186.91V34.7686H188.347V35.0745C188.733 34.8316 189.178 34.6969 189.636 34.6847C190.094 34.6726 190.547 34.7835 190.945 35.0056C191.344 35.2277 191.673 35.5525 191.898 35.9451C192.123 36.3377 192.235 36.7832 192.221 37.2337" fill="#2E3192"/>
<path d="M196.74 37.2159C196.748 36.8691 196.617 36.5331 196.377 36.2797C196.136 36.0262 195.804 35.8753 195.452 35.8592C195.224 35.8525 194.998 35.9011 194.793 36.0009C194.589 36.1007 194.413 36.2484 194.28 36.4312V37.9918C194.415 38.171 194.593 38.3153 194.796 38.4126C195 38.5099 195.225 38.5572 195.452 38.5504C195.625 38.547 195.797 38.5098 195.955 38.441C196.114 38.3721 196.258 38.273 196.378 38.1494C196.497 38.0258 196.591 37.88 196.653 37.7206C196.716 37.5611 196.745 37.3911 196.74 37.2204M198.155 37.2204C198.165 37.5469 198.108 37.872 197.989 38.177C197.87 38.4819 197.691 38.7606 197.462 38.9969C197.233 39.2332 196.958 39.4224 196.654 39.5535C196.35 39.6846 196.023 39.7551 195.691 39.7608C195.192 39.7688 194.702 39.6332 194.28 39.3707V42.0308H192.843V34.7686H194.28V35.0745C194.666 34.8316 195.112 34.6969 195.57 34.6847C196.028 34.6726 196.48 34.7835 196.879 35.0056C197.277 35.2277 197.607 35.5525 197.831 35.9451C198.056 36.3377 198.168 36.7832 198.155 37.2337" fill="#2E3192"/>
<path d="M200.219 32.4143H198.777V39.6544H200.219V32.4143Z" fill="#2E3192"/>
<path d="M202.557 39.6544H201.111V34.7774H202.552L202.557 39.6544ZM200.962 33.0483C200.962 32.8225 201.053 32.606 201.215 32.4463C201.378 32.2867 201.598 32.197 201.827 32.197C202.056 32.197 202.276 32.2867 202.439 32.4463C202.601 32.606 202.692 32.8225 202.692 33.0483C202.692 33.274 202.601 33.4906 202.439 33.6502C202.276 33.8098 202.056 33.8995 201.827 33.8995C201.598 33.8995 201.378 33.8098 201.215 33.6502C201.053 33.4906 200.962 33.274 200.962 33.0483Z" fill="#2E3192"/>
<path d="M204.629 36.737H206.882C206.872 36.6082 206.838 36.4824 206.779 36.367C206.72 36.2515 206.639 36.1486 206.54 36.0641C206.44 35.9796 206.325 35.9153 206.201 35.8748C206.076 35.8343 205.945 35.8184 205.814 35.8281C205.54 35.815 205.272 35.8999 205.057 36.067C204.842 36.2342 204.697 36.4722 204.647 36.737M208.283 37.7257H204.678C204.749 37.9906 204.913 38.2224 205.14 38.3805C205.368 38.5386 205.644 38.6128 205.922 38.5902C206.082 38.6089 206.244 38.585 206.391 38.521C206.539 38.4571 206.666 38.3555 206.76 38.2267H208.265C207.994 39.1622 207.062 39.7651 205.89 39.7651C205.203 39.7651 204.544 39.4966 204.059 39.0185C203.573 38.5404 203.3 37.8919 203.3 37.2158C203.3 36.5397 203.573 35.8913 204.059 35.4132C204.544 34.9351 205.203 34.6665 205.89 34.6665C206.216 34.6601 206.54 34.7195 206.841 34.841C207.142 34.9625 207.415 35.1435 207.643 35.3728C207.871 35.6022 208.048 35.875 208.164 36.1744C208.28 36.4739 208.333 36.7936 208.319 37.1138C208.324 37.3183 208.313 37.5228 208.287 37.7257" fill="#2E3192"/>
<path d="M210.342 35.3182C210.816 34.8898 211.443 34.6634 212.086 34.6887V36.0188C211.761 36.0097 211.438 36.0677 211.138 36.1891C210.837 36.3106 210.566 36.4927 210.342 36.7237V39.641H208.905V34.764H210.342V35.3182Z" fill="#2E3192"/>
<path d="M213.572 37.9696C213.658 38.4927 214.023 38.6923 214.609 38.6923C215.194 38.6923 215.451 38.5327 215.451 38.2755C215.451 38.0184 215.284 37.9297 214.951 37.8676L213.897 37.6947C213.14 37.5617 212.432 37.1538 212.432 36.2493C212.432 35.2385 213.307 34.6355 214.577 34.6355C215.429 34.6355 216.704 34.9237 216.83 36.2981H215.514C215.483 35.8547 215.064 35.6818 214.613 35.6818C214.163 35.6818 213.879 35.8769 213.879 36.1252C213.879 36.3735 214.014 36.502 214.469 36.5686L215.37 36.7104C216.181 36.8567 216.875 37.2336 216.875 38.1514C216.875 39.2509 215.902 39.8007 214.622 39.8007C213.473 39.8007 212.369 39.3573 212.279 37.9563L213.572 37.9696Z" fill="#2E3192"/>
<path d="M223.363 37.9918V36.4311C223.23 36.2484 223.054 36.1006 222.85 36.0009C222.645 35.9011 222.419 35.8525 222.191 35.8592C222.016 35.8637 221.843 35.9026 221.683 35.9736C221.523 36.0445 221.379 36.1461 221.26 36.2724C221.14 36.3987 221.048 36.5472 220.987 36.7092C220.926 36.8712 220.899 37.0434 220.907 37.2159C220.901 37.3866 220.93 37.5567 220.991 37.7164C221.053 37.8761 221.146 38.0221 221.266 38.146C221.385 38.2698 221.529 38.3689 221.688 38.4376C221.846 38.5063 222.018 38.5431 222.191 38.546C222.418 38.5527 222.643 38.5054 222.847 38.4081C223.051 38.3109 223.228 38.1665 223.363 37.9873M224.8 39.65H223.363V39.3618C222.942 39.625 222.451 39.7606 221.952 39.7519C221.553 39.7467 221.161 39.6505 220.805 39.471C220.45 39.2915 220.142 39.0335 219.905 38.7172C219.668 38.4009 219.509 38.0349 219.44 37.6479C219.371 37.2609 219.394 36.8634 219.507 36.4865C219.62 36.1097 219.82 35.7637 220.092 35.4758C220.363 35.1878 220.699 34.9657 221.073 34.8267C221.446 34.6878 221.847 34.6359 222.244 34.675C222.642 34.7141 223.025 34.8433 223.363 35.0523V34.7641H224.8V39.65Z" fill="#2E3192"/>
<path d="M230.612 39.6544H229.17V39.3042C228.772 39.6312 228.269 39.8088 227.751 39.8052C226.444 39.8052 225.575 38.8785 225.575 37.4598V34.7686H227.016V37.3268C227.016 38.1026 227.408 38.5194 228.084 38.5194C228.3 38.5015 228.508 38.4374 228.696 38.3317C228.883 38.2261 229.045 38.0813 229.17 37.9076V34.7686H230.612V39.6544Z" fill="#2E3192"/>
<path d="M232.432 37.9696C232.513 38.4927 232.882 38.6923 233.468 38.6923C233.964 38.6923 234.306 38.5327 234.306 38.2755C234.306 38.0184 234.139 37.9297 233.811 37.8676L232.752 37.6947C231.995 37.5617 231.292 37.1538 231.292 36.2493C231.292 35.2385 232.162 34.6355 233.437 34.6355C234.288 34.6355 235.559 34.9237 235.662 36.2981H234.347C234.315 35.8547 233.896 35.6818 233.446 35.6818C232.995 35.6818 232.711 35.8769 232.711 36.1252C232.711 36.3735 232.846 36.502 233.301 36.5686L234.202 36.7104C235.009 36.8567 235.703 37.2336 235.703 38.1514C235.703 39.2509 234.73 39.8007 233.45 39.8007C232.301 39.8007 231.197 39.3573 231.112 37.9563L232.432 37.9696Z" fill="#2E3192"/>
<path d="M240.105 39.5835C239.671 39.7369 239.213 39.812 238.753 39.8051C237.55 39.8051 236.762 38.9716 236.762 37.7036V35.9612H235.716V34.7685H236.762V33.0261H238.19V34.7685H239.992V35.9612H238.19V37.6947C238.18 37.8077 238.197 37.9213 238.239 38.027C238.28 38.1328 238.345 38.228 238.429 38.3055C238.513 38.3831 238.614 38.441 238.724 38.4749C238.834 38.5089 238.95 38.518 239.064 38.5017C239.348 38.491 239.629 38.4463 239.902 38.3686L240.105 39.5835Z" fill="#2E3192"/>
<path d="M242.06 35.3182C242.533 34.8898 243.16 34.6634 243.803 34.6887V36.0188C243.479 36.0097 243.156 36.0677 242.856 36.1891C242.555 36.3106 242.284 36.4927 242.06 36.7237V39.641H240.623V34.764H242.06V35.3182Z" fill="#2E3192"/>
<path d="M247.966 37.9918V36.4312C247.834 36.2484 247.658 36.1007 247.453 36.0009C247.249 35.9011 247.023 35.8525 246.795 35.8592C246.62 35.8638 246.447 35.9026 246.287 35.9736C246.127 36.0446 245.983 36.1462 245.864 36.2725C245.744 36.3988 245.651 36.5473 245.591 36.7093C245.53 36.8712 245.503 37.0435 245.511 37.2159C245.505 37.3866 245.534 37.5568 245.595 37.7165C245.657 37.8761 245.75 38.0222 245.869 38.146C245.989 38.2698 246.132 38.369 246.291 38.4377C246.45 38.5063 246.621 38.5432 246.795 38.546C247.022 38.5527 247.246 38.5054 247.45 38.4082C247.654 38.3109 247.831 38.1665 247.966 37.9874M249.404 39.65H247.966V39.3618C247.58 39.6046 247.135 39.7395 246.677 39.7523C246.219 39.7651 245.766 39.6552 245.367 39.4344C244.968 39.2135 244.637 38.8901 244.41 38.4985C244.183 38.107 244.068 37.6621 244.078 37.2115C244.071 36.762 244.187 36.3188 244.415 35.9292C244.643 35.5396 244.974 35.2181 245.373 34.9988C245.772 34.7796 246.224 34.6709 246.68 34.6842C247.137 34.6975 247.581 34.8324 247.966 35.0745V34.7863H249.404V39.65Z" fill="#2E3192"/>
<path d="M251.697 32.4143H250.255V39.6544H251.697V32.4143Z" fill="#2E3192"/>
<path d="M254.03 39.6544H252.593V34.7774H254.03V39.6544ZM252.436 33.0483C252.436 32.8225 252.527 32.606 252.689 32.4463C252.851 32.2867 253.071 32.197 253.301 32.197C253.53 32.197 253.75 32.2867 253.912 32.4463C254.074 32.606 254.166 32.8225 254.166 33.0483C254.166 33.274 254.074 33.4906 253.912 33.6502C253.75 33.8098 253.53 33.8995 253.301 33.8995C253.071 33.8995 252.851 33.8098 252.689 33.6502C252.527 33.4906 252.436 33.274 252.436 33.0483Z" fill="#2E3192"/>
<path d="M258.558 37.9918V36.4311C258.427 36.2478 258.25 36.0996 258.046 35.9998C257.842 35.9 257.615 35.8517 257.387 35.8592C257.212 35.8637 257.039 35.9026 256.879 35.9736C256.719 36.0445 256.575 36.1461 256.456 36.2724C256.336 36.3987 256.243 36.5472 256.183 36.7092C256.122 36.8712 256.095 37.0434 256.103 37.2159C256.097 37.3866 256.126 37.5567 256.187 37.7164C256.249 37.8761 256.342 38.0221 256.462 38.146C256.581 38.2698 256.724 38.3689 256.883 38.4376C257.042 38.5063 257.213 38.5431 257.387 38.546C257.614 38.5531 257.839 38.506 258.043 38.4087C258.247 38.3114 258.424 38.1668 258.558 37.9873M260 39.65H258.558V39.3618C258.137 39.625 257.647 39.7606 257.148 39.7519C256.749 39.7467 256.356 39.6505 256.001 39.471C255.646 39.2915 255.338 39.0335 255.101 38.7172C254.864 38.4009 254.705 38.0349 254.636 37.6479C254.567 37.2609 254.589 36.8634 254.703 36.4865C254.816 36.1097 255.016 35.7637 255.287 35.4758C255.559 35.1878 255.895 34.9657 256.268 34.8267C256.642 34.6878 257.043 34.6359 257.44 34.675C257.838 34.7141 258.22 34.8433 258.558 35.0523V34.7641H260V39.65Z" fill="#2E3192"/>
<path d="M113.004 32.4808C111.505 32.9083 109.958 33.1525 108.399 33.2079C105.498 33.2079 103.623 31.8113 103.623 28.7743V19.273H113.459V12.7245H103.623V5.981C103.623 5.23079 103.321 4.51131 102.782 3.98083C102.242 3.45036 101.511 3.15234 100.749 3.15234H95.7931V12.7245H90.0308V19.273H95.7751V28.8674C95.7751 35.806 100.096 40.3948 106.692 40.3948C109.251 40.3948 110.746 40.1731 114.031 39.1623L113.004 32.4808Z" fill="#27AAE1"/>
<path d="M80.5877 30.4102C79.8516 31.3983 78.8818 32.1949 77.7623 32.7311C76.6428 33.2672 75.4074 33.5267 74.163 33.4871C70.0091 33.4871 67.1076 30.0732 67.1076 26.1583C67.1076 22.2434 70.0046 18.7143 74.163 18.7143C75.4136 18.6746 76.6547 18.94 77.7757 19.4869C78.8967 20.0339 79.8627 20.8453 80.5877 21.8489V30.4102ZM85.6247 12.7244H80.5877V14.2895C78.2774 12.8484 75.5866 12.1097 72.852 12.1658C65.346 12.1658 59.2593 18.2665 59.2593 26.1583C59.2593 33.9349 65.346 40.0932 72.852 40.0932C75.5871 40.148 78.2779 39.4077 80.5877 37.9651V39.5346H88.4766V15.5664C88.4766 14.8174 88.1742 14.099 87.636 13.5694C87.0978 13.0397 86.3678 12.7422 85.6066 12.7422" fill="#27AAE1"/>
<path d="M162.427 30.4102C161.691 31.3983 160.721 32.1949 159.602 32.7311C158.482 33.2672 157.247 33.5267 156.003 33.4871C151.849 33.4871 148.947 30.0732 148.947 26.1583C148.947 22.2434 151.849 18.7143 156.003 18.7143C157.253 18.6746 158.494 18.94 159.615 19.4869C160.736 20.0339 161.702 20.8453 162.427 21.8488V30.4102ZM167.46 12.7244H162.427V14.2895C160.121 12.8509 157.435 12.1123 154.705 12.1658C147.199 12.1658 141.112 18.2665 141.112 26.1583C141.112 33.9349 147.199 40.0932 154.705 40.0932C157.44 40.148 160.131 39.4077 162.441 37.9651V39.5346H170.348V15.5664C170.346 14.8169 170.043 14.0986 169.504 13.5691C168.965 13.0396 168.235 12.7422 167.473 12.7422" fill="#27AAE1"/>
<path d="M20.2695 35.3538C20.3731 36.2405 20.5038 37.1272 20.5939 38.014C20.7651 39.6189 20.8597 41.2328 20.9408 42.8378C21.0669 45.4063 21.115 47.9748 21.085 50.5434C21.085 50.9868 20.9453 51.0488 20.5263 50.9557C16.3757 50.0384 12.5124 48.1463 9.26595 45.4411C6.01955 42.7359 3.48653 39.2978 1.8831 35.4203C0.858494 32.9615 0.240935 30.3569 0.0539237 27.7058C-0.0705458 25.6312 0.0397638 23.5493 0.382817 21.4987C0.652476 19.7439 1.12251 18.0246 1.78398 16.3734C2.91134 13.5689 4.5224 10.9771 6.54615 8.71212C6.8345 8.38847 6.99669 8.54808 7.21745 8.77863C8.89592 10.5788 10.4436 12.4929 11.849 14.5069C13.2129 16.4421 14.4296 18.4738 15.4893 20.5854C16.3633 22.3588 17.2103 24.1323 17.9087 25.9456C19.0122 28.7623 19.7831 31.6944 20.2064 34.6843C20.2334 34.906 20.2515 35.1277 20.2695 35.3538Z" fill="#F7941D"/>
<path d="M31.3485 48.1936C31.371 43.9806 31.6191 39.7717 32.0919 35.5844C32.6599 31.1407 33.934 26.8124 35.8674 22.7579C37.7146 18.7292 40.0634 14.9419 42.8597 11.4832C43.6076 10.5654 44.4231 9.70976 45.189 8.79643C45.4773 8.45504 45.6711 8.46391 45.9639 8.79643C47.5092 10.5738 48.816 12.5392 49.852 14.6444C50.8799 16.737 51.6063 18.9604 52.0101 21.2505C52.9461 26.4455 52.2423 31.798 49.9933 36.5874C47.7443 41.3768 44.0582 45.3732 39.4311 48.0384C37.0933 49.4025 34.5463 50.3847 31.8892 50.9469C31.4747 51.04 31.317 50.9824 31.3395 50.5301C31.371 49.7498 31.3395 48.9695 31.3395 48.1848" fill="#27AAE1"/>
<path d="M30.3571 14.498C30.4186 13.202 30.0397 11.9229 29.2804 10.8624C28.0008 9.14213 26.0365 8.64557 24.3515 9.62983C23.5181 10.1937 22.8606 10.9747 22.4524 11.8853C22.0442 12.7959 21.9015 13.8003 22.0402 14.7861C22.2295 15.9731 22.7648 17.0805 23.5811 17.9739C24.1067 18.5406 24.8049 18.9243 25.571 19.0674C26.337 19.2105 27.1295 19.1053 27.8296 18.7675C29.6633 17.8187 30.231 16.1606 30.3571 14.498ZM25.8923 -5.32717e-06C30.3093 -0.0301551 34.6645 1.02112 38.5659 3.05919C39.7925 3.73127 40.9794 4.4714 42.1206 5.27601C42.4495 5.49769 42.4631 5.6706 42.2378 5.98096C41.0033 7.70564 39.8184 9.46579 38.5614 11.1727C36.5706 13.9868 34.3285 16.6205 31.8619 19.0424C30.9486 19.91 29.9528 20.6894 28.8884 21.3701C26.9421 22.6159 25.0814 22.4386 23.2207 21.2016C21.3519 19.8969 19.6633 18.3589 18.1972 16.6261C15.2963 13.2571 12.6133 9.71205 10.1641 6.01199C9.94334 5.6839 9.93884 5.53316 10.2858 5.27601C13.6861 2.71629 17.6755 1.02137 21.9006 0.341386C23.2204 0.125757 24.5546 0.00719732 25.8923 -0.0133057" fill="#2E3192"/>
</g>
<defs>
<clipPath id="clip0_2457_7643">
<rect width="260" height="51" fill="white"/>
</clipPath>
</defs>
</svg>
